<svg width="33" height="32" fill="none" xmlns="http://www.w3.org/2000/svg"><g clip-path="url(#clip0)"><path d="M30.46 0H2.545A2.043 2.043 0 00.5 2.041V29.96c0 1.126.915 2.04 2.044 2.04h27.915a2.042 2.042 0 002.041-2.041V2.04A2.037 2.037 0 0030.46 0zm-3.416 19.499c.585.596 1.854 1.597 1.624 2.615-.212.935-1.608.594-2.963.648-1.546.066-2.463.1-3.394-.648-.438-.355-.695-.775-1.115-1.244-.382-.425-.863-1.186-1.518-1.157-1.176.06-.808 1.699-1.226 2.816-6.54 1.03-9.166-3.01-11.482-6.93C5.847 13.7 4.226 9.622 4.226 9.622l4.625-.016s1.483 2.699 1.876 3.394c.334.592.702 1.061 1.082 1.59.318.438.822 1.296 1.373 1.226.896-.115 1.059-3.593.503-4.758-.221-.472-.752-.637-1.3-.797.185-1.17 5.187-1.414 5.995-.506 1.174 1.319-.813 4.99.795 6.061 2.258-1.183 4.186-6.138 4.186-6.138l5.415.034s-.846 2.678-1.734 3.866c-.517.696-2.233 2.245-2.166 3.394.055.91 1.45 1.795 2.168 2.527z" fill="#999FAE"/></g><defs><clipPath id="clip0"><path fill="#fff" transform="translate(.5)" d="M0 0h32v32H0z"/></clipPath></defs></svg>