<svg width="987" height="345" viewBox="0 0 987 345" fill="none" xmlns="http://www.w3.org/2000/svg">
<path opacity="0.3" d="M-9.87894 28.1406C-24.3562 55.503 -21.0835 89.8092 -4.53689 115.489C12.6073 142.09 42.9684 155.301 74.1734 151.119C104.29 147.067 133.232 127.635 143.399 98.1766C152.907 70.6196 145.296 33.3323 114.025 24.2017C87.6171 16.4953 55.1879 32.1988 47.0634 58.9338C38.9389 85.6688 54.4404 115.015 77.7872 128.506C107.25 145.52 142.345 132.502 168.667 115.752C200.604 95.5073 228.916 64.4439 268.029 58.7485C298.867 54.2582 330.913 66.2876 353.011 87.8974C364.15 98.6488 372.432 112.009 377.106 126.767C382.064 142.913 381.293 162.705 371.459 176.979C360.523 192.86 340.374 193.943 325.331 183.111C308.804 171.187 303.133 150.328 298.859 131.441C290.709 95.3711 286.685 54.5951 303.644 20.3202C318.694 -10.008 351.09 -34.4641 386.289 -27.6598C426.194 -19.9427 449.571 18.1025 460.061 54.3105C465.748 73.955 468.911 94.286 472.195 114.443C475.535 134.936 478.738 155.47 483.044 175.808C491.244 214.336 503.751 252.449 527.533 284.343C549.839 314.264 581.382 337.455 618.989 342.732C654.001 347.693 689.667 338.159 720.753 322.267C759.623 302.445 792.849 273.305 826.483 245.946L934.375 158.199L986.107 116.121C987.221 115.216 985.947 113.375 984.832 114.266L878.233 200.957C843.557 229.165 809.417 258.228 773.826 285.273C742.134 309.342 707.305 330.93 667.749 338.721C650.231 342.173 632.08 342.898 614.455 339.69C595.31 336.057 577.284 327.983 561.827 316.115C494.21 264.945 484.906 175.179 471.716 97.8324C465.421 60.9849 457.084 21.5326 429.623 -5.89268C417.762 -17.759 402.682 -26.9772 386.028 -30.0212C370.899 -32.6467 355.327 -30.1362 341.789 -22.8892C312.308 -7.47609 295.26 23.4717 290.982 55.6354C288.615 73.6279 289.665 91.9208 292.416 109.776C295.235 128.015 298.743 147.564 307.041 164.18C314.111 178.327 326.88 190.931 343.29 192.634C357.952 194.147 370.337 185.413 376.59 172.555C390.209 144.55 378.029 111.518 358.167 89.9987C338.463 68.6645 309.663 55.4603 280.525 55.5676C243.438 55.7309 214.143 80.0253 185.88 100.995C159.119 120.863 123.555 142.982 88.8822 131.109C61.1851 121.626 40.7889 89.6666 48.916 60.5829C57.1084 31.1884 96.5009 14.8614 122.946 30.4616C154.646 49.1479 148.873 96.0926 127.971 120.378C107.069 144.663 71.1213 155.371 40.2643 146.68C8.15465 137.614 -13.1899 107.078 -16.426 74.6697C-18.1132 58.9708 -15.1222 43.1235 -7.82885 29.1198C-7.14608 27.8262 -9.19773 26.9109 -9.87894 28.1406Z" fill="url(#paint0_linear)"/>
<defs>
<linearGradient id="paint0_linear" x1="931.195" y1="181.467" x2="473.744" y2="-203.155" gradientUnits="userSpaceOnUse">
<stop stop-color="#5F5F6F" stop-opacity="0.01"/>
<stop offset="1" stop-color="#3E3E50"/>
</linearGradient>
</defs>
</svg>
