<svg width="785" height="488" viewBox="0 0 785 488" fill="none" xmlns="http://www.w3.org/2000/svg">
<path d="M0.103656 440.194C14.4737 473.494 52.2037 494.504 88.0037 485.804C105.42 481.555 120.814 471.376 131.544 457.014C142.066 442.531 146.581 424.54 144.144 406.804C141.894 389.714 133.694 373.174 120.404 362.004C108.174 351.714 90.7837 346.444 75.0037 350.004C58.6437 353.734 48.0537 367.714 47.3137 384.234C46.5037 402.354 55.5137 419.924 68.0037 432.504C81.1737 445.694 99.3737 454.084 118.184 450.634C136.994 447.184 149.264 432.494 152.074 413.964C155.394 392.104 146.774 371.314 142.854 350.174C139.459 331.646 141.142 312.544 147.724 294.894C160.274 260.764 189.504 232.114 225.244 223.524C244.804 218.824 267.624 219.824 284.334 232.094C299.544 243.264 305.974 263.344 302.274 281.574C298.534 299.984 284.424 313.524 266.134 317.354C248.004 321.144 228.324 315.074 217.284 299.804C206.694 285.174 204.804 265.184 210.604 248.304C217.004 229.804 233.004 216.264 251.104 209.804C292.104 195.294 334.164 217.374 360.384 248.724C387.844 281.554 401.094 323.204 425.384 358.074C446.334 388.164 480.384 417.344 519.384 414.914C558.004 412.544 585.004 379.264 596.894 345.074C612.044 301.524 609.614 254.074 622.674 209.984C634.394 170.404 660.864 130.824 703.674 121.454C723.134 117.007 743.563 121.586 759.264 133.914C773.824 145.354 784.124 163.244 782.174 182.184C780.174 201.784 765.664 218.524 748.034 226.374C727.034 235.714 701.894 232.654 681.824 222.374C649.514 205.804 629.004 169.804 629.004 133.734C629.084 91.1542 659.604 56.8942 693.344 34.6842C712.074 22.3642 732.344 12.6842 752.574 3.09418C753.884 2.47418 752.744 0.53418 751.434 1.09418C711.914 19.9042 670.264 40.0942 645.014 77.5242C634.394 93.2442 627.504 111.424 626.814 130.524C626.336 147.982 630.278 165.278 638.274 180.804C655.334 214.354 691.574 238.444 730.104 233.534C748.584 231.184 765.664 221.264 775.944 205.534C785.648 190.943 787.181 172.391 780.004 156.404C772.774 140.304 758.314 127.774 741.924 121.594C724.524 115.024 705.244 116.864 688.314 124.014C649.314 140.494 627.914 179.344 617.974 218.624C612.354 240.794 609.834 263.524 606.884 286.164C603.784 310.014 599.994 334.384 589.964 356.464C581.794 374.464 569.234 391.114 552.394 401.764C535.126 412.684 513.988 415.629 494.394 409.844C452.884 397.844 426.884 359.944 407.704 323.844C388.074 286.904 370.264 246.684 334.704 222.064C318.274 210.684 298.704 203.064 278.524 202.944C260.244 202.824 241.714 208.784 227.524 220.454C213.853 231.585 205.667 248.085 205.074 265.704C204.534 282.004 210.504 298.944 223.234 309.574C235.964 320.204 254.004 323.074 269.774 318.804C285.964 314.414 298.774 302.424 303.454 286.234C307.994 270.544 305.104 252.544 295.104 239.514C283.394 224.244 263.464 218.404 244.884 218.744C209.024 219.414 176.414 241.174 157.324 270.744C147.693 285.515 141.583 302.299 139.464 319.804C138.453 328.667 138.614 337.624 139.944 346.444C141.774 358.594 145.504 370.344 148.054 382.344C152.384 402.754 152.724 429.004 133.364 442.164C114.664 454.884 90.3637 448.954 74.1637 435.164C59.1637 422.344 47.7737 402.414 49.7137 382.114C50.6337 372.534 55.1837 363.424 63.1037 357.744C70.4537 352.474 79.6936 350.744 88.6037 351.354C129.654 354.354 151.364 402.174 138.954 438.294C132.394 457.334 116.704 472.554 98.2037 480.174C79.6254 487.809 58.6879 487.25 40.5437 478.634C23.3397 470.548 9.6607 456.485 2.05366 439.064C1.47366 437.734 -0.466344 438.884 0.103656 440.194Z" fill="url(#paint0_linear)"/>
<defs>
<linearGradient id="paint0_linear" x1="784.478" y1="66.7722" x2="212.012" y2="66.7722" gradientUnits="userSpaceOnUse">
<stop stop-color="#5F5F6F" stop-opacity="0.01"/>
<stop offset="1" stop-color="#3E3E50"/>
</linearGradient>
</defs>
</svg>
