<svg width="987" height="345" fill="none" xmlns="http://www.w3.org/2000/svg"><path opacity=".3" d="M-9.879 28.14c-14.477 27.363-11.205 61.67 5.342 87.349 17.144 26.601 47.505 39.812 78.71 35.63 30.117-4.052 59.059-23.484 69.226-52.942 9.508-27.557 1.897-64.845-29.374-73.975-26.408-7.707-58.837 7.997-66.962 34.732-8.124 26.735 7.377 56.081 30.724 69.572 29.463 17.014 64.558 3.996 90.88-12.754 31.937-20.245 60.249-51.308 99.362-57.003 30.838-4.49 62.884 7.539 84.982 29.148a93.084 93.084 0 0124.095 38.87c4.958 16.146 4.187 35.938-5.647 50.212-10.936 15.881-31.085 16.964-46.128 6.132-16.527-11.924-22.198-32.783-26.472-51.67-8.15-36.07-12.174-76.846 4.785-111.12 15.05-30.329 47.446-54.785 82.645-47.98 39.905 7.716 63.282 45.761 73.772 81.97 5.687 19.644 8.85 39.975 12.134 60.132 3.34 20.493 6.543 41.027 10.849 61.365 8.2 38.528 20.707 76.641 44.489 108.535 22.306 29.921 53.849 53.112 91.456 58.389 35.012 4.961 70.678-4.573 101.764-20.465 38.87-19.822 72.096-48.962 105.73-76.321l107.892-87.747 51.732-42.078c1.114-.905-.16-2.746-1.275-1.855l-106.599 86.691c-34.676 28.208-68.816 57.271-104.407 84.316-31.692 24.069-66.521 45.657-106.077 53.448-17.518 3.452-35.669 4.177-53.294.969a124.543 124.543 0 01-52.628-23.575c-67.617-51.17-76.921-140.936-90.111-218.283-6.295-36.847-14.632-76.3-42.093-103.725-11.861-11.866-26.941-21.084-43.595-24.128a68.808 68.808 0 00-44.239 7.132c-29.481 15.413-46.529 46.36-50.807 78.524-2.367 17.993-1.317 36.286 1.434 54.141 2.819 18.239 6.327 37.788 14.625 54.404 7.07 14.147 19.839 26.751 36.249 28.454 14.662 1.513 27.047-7.221 33.3-20.079 13.619-28.005 1.439-61.037-18.423-82.556-19.704-21.334-48.504-34.539-77.642-34.431-37.087.163-66.382 24.457-94.645 45.427-26.761 19.868-62.325 41.987-96.998 30.114-27.697-9.483-48.093-41.442-39.966-70.526 8.192-29.395 47.585-45.722 74.03-30.121 31.7 18.686 25.927 65.63 5.025 89.916-20.902 24.285-56.85 34.993-87.707 26.302-32.11-9.066-53.454-39.602-56.69-72.01a80.084 80.084 0 018.597-45.55c.683-1.294-1.369-2.21-2.05-.98z" fill="url(#paint0_linear)"/><defs><linearGradient id="paint0_linear" x1="931.195" y1="181.467" x2="473.744" y2="-203.155" gradientUnits="userSpaceOnUse"><stop stop-color="#5F5F6F" stop-opacity=".01"/><stop offset="1" stop-color="#3E3E50"/></linearGradient></defs></svg>