<svg width="785" height="488" fill="none" xmlns="http://www.w3.org/2000/svg"><path d="M.104 440.194c14.37 33.3 52.1 54.31 87.9 45.61a77.186 77.186 0 0043.54-28.79 69.361 69.361 0 0012.6-50.21c-2.25-17.09-10.45-33.63-23.74-44.8-12.23-10.29-29.62-15.56-45.4-12-16.36 3.73-26.95 17.71-27.69 34.23-.81 18.12 8.2 35.69 20.69 48.27 13.17 13.19 31.37 21.58 50.18 18.13 18.81-3.45 31.08-18.14 33.89-36.67 3.32-21.86-5.3-42.65-9.22-63.79a104.372 104.372 0 014.87-55.28c12.55-34.13 41.78-62.78 77.52-71.37 19.56-4.7 42.38-3.7 59.09 8.57 15.21 11.17 21.64 31.25 17.94 49.48-3.74 18.41-17.85 31.95-36.14 35.78-18.13 3.79-37.81-2.28-48.85-17.55-10.59-14.63-12.48-34.62-6.68-51.5 6.4-18.5 22.4-32.04 40.5-38.5 41-14.51 83.06 7.57 109.28 38.92 27.46 32.83 40.71 74.48 65 109.35 20.95 30.09 55 59.27 94 56.84 38.62-2.37 65.62-35.65 77.51-69.84 15.15-43.55 12.72-91 25.78-135.09 11.72-39.58 38.19-79.16 81-88.53a66.153 66.153 0 0155.59 12.46c14.56 11.44 24.86 29.33 22.91 48.27-2 19.6-16.51 36.34-34.14 44.19-21 9.34-46.14 6.28-66.21-4-32.31-16.57-52.82-52.57-52.82-88.64.08-42.58 30.6-76.84 64.34-99.05 18.73-12.32 39-22 59.23-31.59 1.31-.62.17-2.56-1.14-2-39.52 18.81-81.17 39-106.42 76.43-10.62 15.72-17.51 33.9-18.2 53a103.623 103.623 0 0011.46 50.28c17.06 33.55 53.3 57.64 91.83 52.73 18.48-2.35 35.56-12.27 45.84-28a51 51 0 004.06-49.13c-7.23-16.1-21.69-28.63-38.08-34.81-17.4-6.57-36.68-4.73-53.61 2.42-39 16.48-60.4 55.33-70.34 94.61-5.62 22.17-8.14 44.9-11.09 67.54-3.1 23.85-6.89 48.22-16.92 70.3-8.17 18-20.73 34.65-37.57 45.3a70.937 70.937 0 01-58 8.08c-41.51-12-67.51-49.9-86.69-86-19.63-36.94-37.44-77.16-73-101.78-16.43-11.38-36-19-56.18-19.12-18.28-.12-36.81 5.84-51 17.51a60.997 60.997 0 00-22.45 45.25c-.54 16.3 5.43 33.24 18.16 43.87 12.73 10.63 30.77 13.5 46.54 9.23 16.19-4.39 29-16.38 33.68-32.57 4.54-15.69 1.65-33.69-8.35-46.72-11.71-15.27-31.64-21.11-50.22-20.77-35.86.67-68.47 22.43-87.56 52a115.161 115.161 0 00-17.86 49.06c-1.011 8.863-.85 17.82.48 26.64 1.83 12.15 5.56 23.9 8.11 35.9 4.33 20.41 4.67 46.66-14.69 59.82-18.7 12.72-43 6.79-59.2-7-15-12.82-26.39-32.75-24.45-53.05.92-9.58 5.47-18.69 13.39-24.37 7.35-5.27 16.59-7 25.5-6.39 41.05 3 62.76 50.82 50.35 86.94-6.56 19.04-22.25 34.26-40.75 41.88a71.267 71.267 0 01-57.66-1.54 78.38 78.38 0 01-38.49-39.57c-.58-1.33-2.52-.18-1.95 1.13z" fill="url(#paint0_linear)"/><defs><linearGradient id="paint0_linear" x1="784.478" y1="66.772" x2="212.012" y2="66.772" gradientUnits="userSpaceOnUse"><stop stop-color="#5F5F6F" stop-opacity=".01"/><stop offset="1" stop-color="#3E3E50"/></linearGradient></defs></svg>