<svg width="870" height="346" viewBox="0 0 870 346" fill="none" xmlns="http://www.w3.org/2000/svg">
<path d="M2.42658 54.8605C-5.06269 90.3471 13.6174 129.283 47.8722 142.846C64.5465 149.429 82.9926 150.004 100.045 144.471C116.997 138.719 131.07 126.635 139.318 110.746C147.346 95.4922 150.199 77.2528 145.795 60.46C141.748 44.9976 130.591 30.6556 115.65 24.4532C100.138 18.0548 83.4209 23.3569 73.2801 36.4192C62.1586 50.7475 59.373 70.2956 62.3097 87.7779C65.4495 106.151 75.4675 123.508 92.8184 131.549C110.169 139.591 128.669 134.679 141.66 121.17C156.99 105.237 161.953 83.2847 170.955 63.7599C178.879 46.6706 191.28 32.0443 206.844 21.4322C236.794 0.807987 277.2 -5.71261 311.343 7.90488C330.028 15.3585 348.084 29.3484 354.645 49.0137C360.617 66.9149 354.276 87.0231 340.731 99.773C327.05 112.647 307.712 115.558 290.566 108.127C273.574 100.755 261.008 84.4383 260.809 65.5964C260.607 47.537 270.603 30.123 285.083 19.6878C300.989 8.27613 321.87 6.45633 340.379 11.63C382.234 23.45 403.832 65.7595 407.144 106.494C410.615 149.154 397.391 190.812 397.096 233.307C396.832 269.971 407.791 313.454 441.039 333.983C473.943 354.342 515.201 342.754 544.647 321.7C582.158 294.885 607.565 254.736 643.681 226.274C676.1 200.72 720.562 183.681 760.928 200.743C779.386 208.346 793.424 223.878 799.127 243.008C804.412 260.754 802.495 281.308 789.97 295.648C777.022 310.498 755.51 315.791 736.583 312.024C714.043 307.528 695.282 290.516 684.828 270.536C668.011 238.354 672.045 197.119 692.867 167.666C717.513 132.943 762.211 122.586 802.583 123.928C824.989 124.68 847.128 128.477 869.183 132.325" stroke="url(#paint0_linear)"/>
<defs>
<linearGradient id="paint0_linear" x1="196.545" y1="331.84" x2="450.764" y2="582.518" gradientUnits="userSpaceOnUse">
<stop stop-color="white" stop-opacity="0.28"/>
<stop offset="1" stop-color="#FAFAFA" stop-opacity="0"/>
</linearGradient>
</defs>
</svg>
