<svg width="717" height="614" viewBox="0 0 717 614" fill="none" xmlns="http://www.w3.org/2000/svg">
<path d="M1.01812 579.093C21.7299 608.866 62.8873 621.944 96.2387 606.291C112.46 598.659 125.52 585.619 133.176 569.409C140.604 553.121 141.447 534.591 135.528 517.696C129.92 501.396 118.592 486.819 103.344 478.519C89.3102 470.869 71.2192 469.167 56.4638 475.797C41.1738 482.709 33.5789 498.518 36.1426 514.854C38.9561 532.773 51.2836 548.198 66.028 558.039C81.5603 568.343 101.066 572.942 118.813 565.816C136.56 558.691 145.659 541.852 144.724 523.134C143.626 501.05 131.04 482.392 122.989 462.456C115.974 444.974 113.82 425.92 116.757 407.313C122.261 371.368 145.202 337.472 178.517 321.939C196.749 313.439 219.312 309.876 238.13 318.574C255.259 326.492 265.558 344.89 265.561 363.492C265.561 382.278 254.429 398.356 237.268 405.75C220.255 413.074 199.761 411.043 185.902 398.277C172.611 386.048 166.78 366.834 169.103 349.137C171.692 329.734 184.676 313.279 201.128 303.345C238.418 280.963 284.032 294.228 315.968 319.731C349.415 346.437 370.691 384.615 401.437 413.952C427.958 439.269 467.135 461.086 504.871 450.94C542.246 440.929 562.08 402.94 566.926 367.067C573.102 321.373 561.275 275.357 565.296 229.549C568.902 188.428 586.962 144.371 627.05 126.666C645.236 118.433 666.167 118.854 684.008 127.81C700.554 136.122 714.209 151.603 716.069 170.552C718.011 190.158 707.124 209.452 691.409 220.654C672.689 233.988 647.443 235.994 625.728 229.916C590.766 220.11 563.5 188.913 556.319 153.565C547.921 111.822 571.009 72.1716 599.652 43.6892C615.555 27.887 633.492 14.3654 651.408 0.939959" stroke="url(#paint0_linear)"/>
<defs>
<linearGradient id="paint0_linear" x1="662" y1="225" x2="519.848" y2="15.4561" gradientUnits="userSpaceOnUse">
<stop stop-color="white" stop-opacity="0.28"/>
<stop offset="1" stop-color="#FAFAFA" stop-opacity="0"/>
</linearGradient>
</defs>
</svg>
