<svg width="643" height="815" viewBox="0 0 643 815" fill="none" xmlns="http://www.w3.org/2000/svg">
<path opacity="0.5" d="M66.9994 -4.97671C36.7294 1.55329 12.5694 26.1433 3.55937 55.3433C-5.77063 85.5933 3.65937 117.343 26.9494 138.543C49.4394 158.993 82.9494 168.643 112.049 157.463C139.269 147.003 162.919 117.173 149.779 87.3533C138.679 62.1733 105.779 47.4533 80.0794 58.4433C54.3794 69.4333 41.8894 100.193 46.5894 126.753C52.5294 160.263 85.0894 178.753 114.859 188.123C150.919 199.543 192.929 201.223 222.469 227.503C245.759 248.223 257.179 280.503 254.859 311.333C253.798 326.783 248.9 341.724 240.609 354.803C231.439 368.993 215.789 381.143 198.529 382.803C179.329 384.653 165.529 369.923 164.139 351.433C162.629 331.103 174.949 313.333 186.659 297.903C209.029 268.443 237.659 239.113 274.819 230.033C307.729 222.033 347.309 231.093 364.759 262.423C384.539 297.943 370.459 340.333 349.489 371.673C338.109 388.673 324.579 404.183 311.259 419.673C297.719 435.423 284.059 451.093 271.259 467.483C247.039 498.563 225.909 532.673 216.799 571.413C208.249 607.753 210.799 646.833 230.969 679.023C249.709 709.023 279.969 730.193 312.149 743.763C352.349 760.763 396.049 767.443 438.649 775.583L575.289 801.703L640.809 814.223C642.219 814.493 642.809 812.333 641.409 812.053L506.409 786.243C462.489 777.853 418.259 770.423 374.639 760.583C335.809 751.813 296.859 739.043 265.429 713.773C251.509 702.583 239.269 689.153 230.379 673.593C220.836 656.596 215.414 637.597 214.549 618.123C210.199 533.413 272.939 468.503 323.669 408.613C347.829 380.073 372.669 348.293 375.989 309.613C377.439 292.893 374.789 275.413 366.399 260.703C358.67 247.43 346.723 237.123 332.459 231.423C301.679 218.773 267.009 225.643 239.629 243.073C224.329 252.843 210.999 265.423 199.099 279.023C186.949 292.923 174.239 308.193 166.859 325.243C160.579 339.763 159.149 357.653 168.409 371.313C176.689 383.513 191.349 387.373 205.219 383.883C235.429 376.283 252.879 345.693 256.569 316.633C260.219 287.813 251.789 257.263 232.949 235.023C208.949 206.733 171.489 199.943 137.239 191.803C104.799 184.103 64.9694 171.113 51.7394 136.923C41.1694 109.613 52.5094 73.4233 80.0094 60.9233C107.789 48.2733 145.649 67.9233 150.729 98.2133C156.829 134.513 117.169 160.313 85.1194 159.943C53.0694 159.573 21.7294 138.943 8.51937 109.723C-5.21063 79.3033 4.42937 43.3033 27.1594 19.9633C38.0932 8.56547 52.1522 0.653999 67.5694 -2.77671C68.9994 -3.08671 68.3794 -5.24671 66.9994 -4.97671Z" fill="#FFDC60"/>
</svg>
