<svg width="863" height="777" viewBox="0 0 863 777" fill="none" xmlns="http://www.w3.org/2000/svg">
<path d="M64.7268 -22.8294C37.9471 -7.30407 22.5337 23.495 22.9468 54.0073C23.3785 85.6157 42.1134 112.871 70.7847 125.837C98.4644 138.336 133.303 137.183 157.539 117.601C180.209 99.2813 193.526 63.6618 171.856 39.3821C153.554 18.8818 117.736 15.0314 96.6749 33.3859C75.6134 51.7404 73.1967 84.8064 85.8367 108.589C101.794 138.591 138.448 146.127 169.643 145.859C207.451 145.602 247.921 134.26 284.099 150.126C312.623 162.636 333.413 189.782 340.69 219.782C344.433 234.785 344.371 250.486 340.509 265.463C336.153 281.767 325.007 298.128 309.102 305.021C291.411 312.691 273.755 302.949 266.746 285.813C259.056 266.966 265.307 246.292 271.697 228.029C283.91 193.155 302.117 156.476 334.665 136.407C363.503 118.672 403.933 115.089 430.166 139.475C459.904 167.125 459.552 211.728 449.249 247.956C443.656 267.61 435.559 286.51 427.656 305.326C419.623 324.457 411.452 343.549 404.32 363.06C390.846 400.043 381.243 438.952 384.495 478.557C387.542 515.71 401.989 552.048 431.073 576.414C458.124 599.14 493.415 609.93 528.194 612.91C571.656 616.678 615.271 609.565 658.29 604.177L796.277 586.908L862.441 578.622" stroke="url(#paint0_linear)"/>
<defs>
<linearGradient id="paint0_linear" x1="511.5" y1="594" x2="100.141" y2="23.1186" gradientUnits="userSpaceOnUse">
<stop stop-color="#FAB8C4" stop-opacity="0"/>
<stop offset="1" stop-color="#F0D0D6"/>
</linearGradient>
</defs>
</svg>
