<svg width="340" height="1120" viewBox="0 0 340 1120" fill="none" xmlns="http://www.w3.org/2000/svg">
<path d="M55.3445 12.2753C85.4803 -4.5273 123.768 -1.73635 152.76 16.0512C182.791 34.4814 198.22 67.9629 194.297 102.817C190.493 136.456 169.53 169.169 136.958 181.224C106.489 192.497 64.7788 184.95 53.8731 150.354C44.6682 121.137 61.3958 84.6331 90.9823 74.9205C120.569 65.2079 153.62 81.7404 169.196 107.404C188.839 139.79 175.166 179.196 157.128 208.925C135.331 244.994 101.399 277.295 95.9756 320.993C91.7001 355.446 105.853 390.834 130.442 414.905C142.679 427.042 157.754 435.932 174.303 440.77C192.403 445.89 214.428 444.539 230.096 433.233C247.527 420.659 248.259 398.193 235.84 381.712C222.17 363.603 198.804 357.807 177.667 353.518C137.3 345.339 91.7886 341.872 54.0119 361.61C20.5863 379.125 -5.89078 415.81 2.5162 454.839C12.0506 499.084 54.9758 524.171 95.5515 534.952C117.566 540.796 140.285 543.813 162.814 546.968C185.718 550.178 208.663 553.234 231.418 557.523C274.523 565.696 317.268 578.676 353.351 604.366C387.203 628.462 413.776 663.012 420.538 704.76C426.888 743.625 417.108 783.581 400.139 818.594C378.975 862.373 347.301 900.097 317.62 938.234L222.426 1060.57L176.776 1119.22" stroke="#FED0DA"/>
</svg>
