<svg width="805" height="654" viewBox="0 0 805 654" fill="none" xmlns="http://www.w3.org/2000/svg">
<path d="M804.271 65.731C797.174 35.7117 772.233 12.1358 743.006 3.74063C712.728 -4.95246 681.33 5.06904 660.702 28.6859C640.805 51.4912 631.87 85.0582 643.569 113.82C654.515 140.724 684.659 163.688 714.063 150.009C738.892 138.455 752.883 105.395 741.44 80.0156C729.997 54.6364 699.149 42.806 672.82 48.0136C639.602 54.594 621.855 87.39 613.124 117.227C602.479 153.368 601.641 195.243 576.084 225.186C555.934 248.793 524.048 260.807 493.332 259.108C477.942 258.357 462.982 253.775 449.806 245.776C435.507 236.924 423.11 221.578 421.116 204.42C418.895 185.333 433.274 171.297 451.641 169.546C471.835 167.639 489.757 179.557 505.339 190.915C535.09 212.611 564.836 240.545 574.606 277.377C583.217 309.996 574.99 349.597 544.169 367.598C509.226 388.003 466.777 374.82 435.184 354.555C418.046 343.557 402.348 330.389 386.675 317.429C370.738 304.256 354.878 290.961 338.319 278.537C306.92 255.03 272.568 234.661 233.849 226.355C197.528 218.559 158.702 221.874 127.079 242.601C97.6069 261.86 77.1474 292.419 64.2864 324.739C48.1725 365.115 42.3943 408.772 35.1419 451.363L11.8691 587.973L0.714359 653.479" stroke="#999FAE" stroke-dasharray="8 8"/>
</svg>
