<svg width="806" height="654" viewBox="0 0 806 654" fill="none" xmlns="http://www.w3.org/2000/svg">
<path d="M1.38536 65.731C8.48208 35.7117 33.4237 12.1358 62.6507 3.74063C92.9287 -4.95246 124.327 5.06904 144.954 28.6859C164.852 51.4912 173.787 85.0582 162.087 113.82C151.141 140.724 120.997 163.688 91.5929 150.009C66.764 138.455 52.7734 105.395 64.2162 80.0156C75.6591 54.6364 106.507 42.806 132.836 48.0136C166.054 54.594 183.802 87.39 192.532 117.227C203.177 153.368 204.015 195.243 229.572 225.186C249.722 248.793 281.608 260.807 312.324 259.108C327.714 258.357 342.675 253.775 355.851 245.776C370.149 236.924 382.546 221.578 384.54 204.42C386.762 185.333 372.382 171.297 354.016 169.546C333.821 167.639 315.899 179.557 300.317 190.915C270.566 212.611 240.82 240.545 231.05 277.377C222.439 309.996 230.666 349.597 261.487 367.598C296.43 388.003 338.879 374.82 370.472 354.555C387.61 343.557 403.308 330.389 418.982 317.429C434.918 304.256 450.778 290.961 467.337 278.537C498.736 255.03 533.088 234.661 571.807 226.355C608.128 218.559 646.955 221.874 678.577 242.601C708.049 261.86 728.509 292.419 741.37 324.739C757.484 365.115 763.262 408.772 770.514 451.363L793.787 587.973L804.942 653.479" stroke="url(#paint0_linear)" stroke-dasharray="8 8"/>
<defs>
<linearGradient id="paint0_linear" x1="845.499" y1="630.5" x2="263.752" y2="857.995" gradientUnits="userSpaceOnUse">
<stop stop-color="#484B57" stop-opacity="0"/>
<stop offset="0.226606" stop-color="#484B57" stop-opacity="0.84"/>
<stop offset="0.68093" stop-color="#484B57"/>
<stop offset="1" stop-color="#232326" stop-opacity="0"/>
</linearGradient>
</defs>
</svg>
