<svg width="731" height="900" viewBox="0 0 731 900" fill="none" xmlns="http://www.w3.org/2000/svg">
<path d="M64.7199 796.804C37.9402 781.279 22.5268 750.48 22.9399 719.967C23.3717 688.359 42.1066 661.103 70.7778 648.138C98.4575 635.638 133.296 636.792 157.532 656.374C180.202 674.693 193.519 710.313 171.849 734.592C153.547 755.093 117.73 758.943 96.6681 740.589C75.6066 722.234 73.1899 689.168 85.8298 665.386C101.787 635.384 138.441 627.847 169.636 628.115C207.444 628.373 247.914 639.715 284.092 623.849C312.616 611.339 333.406 584.193 340.683 554.193C344.427 539.19 344.364 523.489 340.503 508.511C336.146 492.208 325 475.846 309.095 468.954C291.404 461.284 273.749 471.026 266.739 488.162C259.049 507.008 265.3 527.682 271.69 545.946C283.903 580.82 302.11 617.498 334.658 637.568C363.496 655.303 403.926 658.886 430.159 634.499C459.897 606.85 459.546 562.247 449.242 526.018C443.649 506.365 435.552 487.465 427.649 468.649C419.616 449.517 411.445 430.425 404.313 410.914C390.839 373.932 381.236 335.023 384.488 295.417C387.535 258.264 401.982 221.927 431.066 197.561C458.117 174.835 493.408 164.045 528.187 161.065C571.649 157.297 615.265 164.41 658.283 169.797L796.27 187.067L862.434 195.353" stroke="url(#paint0_linear)"/>
<defs>
<linearGradient id="paint0_linear" x1="473.315" y1="856.149" x2="-18.6434" y2="653.205" gradientUnits="userSpaceOnUse">
<stop stop-color="white"/>
<stop offset="1" stop-color="#FAFAFA" stop-opacity="0"/>
</linearGradient>
</defs>
</svg>
