<svg width="835" height="662" viewBox="0 0 835 662" fill="none" xmlns="http://www.w3.org/2000/svg">
<path opacity="0.3" d="M832.701 86.8488C826.91 56.4391 802.921 31.697 773.957 21.9836C743.952 11.9249 711.992 20.5781 690.239 43.3389C669.255 65.3185 658.797 98.5734 669.264 127.927C679.057 155.384 708.295 179.743 738.416 167.336C763.851 156.854 779.361 124.332 769.001 98.3809C758.642 72.43 728.203 59.2008 701.545 63.253C667.911 68.3757 648.641 100.467 638.554 129.991C626.265 165.751 623.566 207.694 596.585 236.578C575.312 259.35 542.774 269.979 512.018 266.912C496.604 265.477 481.791 260.219 468.92 251.615C454.961 242.107 443.199 226.171 441.959 208.882C440.576 189.649 455.632 176.215 474.145 175.275C494.499 174.259 511.96 187.003 527.096 199.081C555.996 222.152 584.613 251.476 592.785 288.834C599.981 321.918 589.966 361.253 558.231 377.931C522.252 396.837 480.229 381.736 449.417 360.018C432.703 348.233 417.531 334.334 402.373 320.647C386.962 306.733 371.633 292.701 355.563 279.511C325.09 254.551 291.513 232.606 253.017 222.561C216.907 213.134 177.788 214.733 145.127 234.109C114.69 252.109 92.7983 281.836 78.455 313.667C60.4891 353.429 52.7521 396.94 43.5826 439.316L14.1605 575.237L0.0571709 640.412C-0.246882 641.815 1.89746 642.457 2.21127 641.065L31.2837 506.775C40.7351 463.086 49.2346 419.064 60.1278 375.71C69.8353 337.117 83.5434 298.501 109.561 267.704C121.083 254.064 134.802 242.158 150.569 233.651C167.787 224.526 186.907 219.569 206.39 219.178C291.155 216.888 354.503 281.165 413.126 333.317C441.062 358.155 472.22 383.752 510.796 388.009C527.471 389.864 545.005 387.64 559.91 379.612C573.363 372.21 583.954 360.52 589.997 346.404C603.386 315.95 597.362 281.135 580.607 253.349C571.215 237.821 558.966 224.194 545.663 211.971C532.066 199.491 517.114 186.418 500.253 178.629C485.894 172 468.05 170.137 454.173 179.059C441.779 187.038 437.566 201.595 440.717 215.541C447.579 245.917 477.727 264.099 506.68 268.492C535.394 272.84 566.131 265.157 588.815 246.869C617.671 223.57 625.366 186.298 634.333 152.267C642.816 120.034 656.765 80.5445 691.256 68.1529C718.806 58.2526 754.7 70.4642 766.524 98.2507C778.492 126.321 757.935 163.68 727.54 168.021C691.113 173.236 666.291 132.974 667.439 100.953C668.587 68.9321 689.966 38.1125 719.489 25.6201C750.225 12.6373 785.969 23.1454 808.743 46.428C819.869 57.6318 827.434 71.8742 830.489 87.3651C830.764 88.8017 832.937 88.2345 832.701 86.8488Z" fill="url(#paint0_linear)"/>
<defs>
<linearGradient id="paint0_linear" x1="369" y1="296.5" x2="780" y2="-0.000242144" gradientUnits="userSpaceOnUse">
<stop stop-color="#5F5F6F" stop-opacity="0.01"/>
<stop offset="1" stop-color="#AEAEBB"/>
</linearGradient>
</defs>
</svg>
