<svg width="785" height="485" viewBox="0 0 785 485" fill="none" xmlns="http://www.w3.org/2000/svg">
<path d="M0.103656 437.251C14.4737 470.394 52.2037 491.306 88.0037 482.646C105.42 478.417 120.814 468.286 131.544 453.992C142.066 439.577 146.581 421.67 144.144 404.018C141.894 387.008 133.694 370.546 120.404 359.429C108.174 349.187 90.7837 343.942 75.0037 347.485C58.6437 351.198 48.0537 365.112 47.3137 381.554C46.5037 399.589 55.5137 417.076 68.0037 429.597C81.1737 442.725 99.3737 451.076 118.184 447.642C136.994 444.208 149.264 429.587 152.074 411.144C155.394 389.387 146.774 368.695 142.854 347.654C139.459 329.213 141.142 310.201 147.724 292.635C160.274 258.665 189.504 230.15 225.244 221.6C244.804 216.922 267.624 217.918 284.334 230.13C299.544 241.247 305.974 261.233 302.274 279.377C298.534 297.701 284.424 311.177 266.134 314.989C248.004 318.761 228.324 312.72 217.284 297.521C206.694 282.96 204.804 263.064 210.604 246.264C217.004 227.851 233.004 214.374 251.104 207.945C292.104 193.503 334.164 215.479 360.384 246.682C387.844 279.357 401.094 320.811 425.384 355.517C446.334 385.466 480.384 414.509 519.384 412.09C558.004 409.731 585.004 376.608 596.894 342.578C612.044 299.233 609.614 252.007 622.674 208.124C634.394 168.73 660.864 129.336 703.674 120.01C723.134 115.584 743.563 120.141 759.264 132.412C773.824 143.798 784.124 161.604 782.174 180.455C780.174 199.963 765.664 216.624 748.034 224.437C727.034 233.733 701.894 230.687 681.824 220.456C649.514 203.964 629.004 168.133 629.004 132.233C629.084 89.853 659.604 55.7542 693.344 33.6487C712.074 21.3866 732.344 11.7521 752.574 2.20724C753.884 1.59018 752.744 -0.340698 751.434 0.216675C711.914 18.9382 670.264 39.0332 645.014 76.2871C634.394 91.9332 627.504 110.028 626.814 129.038C626.336 146.414 630.278 163.628 638.274 179.081C655.334 212.473 691.574 236.45 730.104 231.563C748.584 229.224 765.664 219.351 775.944 203.695C785.648 189.172 787.181 170.707 780.004 154.796C772.774 138.772 758.314 126.301 741.924 120.15C724.524 113.611 705.244 115.442 688.314 122.558C649.314 138.961 627.914 177.628 617.974 216.723C612.354 238.789 609.834 261.412 606.884 283.946C603.784 307.683 599.994 331.939 589.964 353.915C581.794 371.83 569.234 388.402 552.394 399.002C535.126 409.87 513.988 412.801 494.394 407.044C452.884 395.1 426.884 357.379 407.704 321.448C388.074 284.682 370.264 244.651 334.704 220.147C318.274 208.821 298.704 201.237 278.524 201.117C260.244 200.998 241.714 206.93 227.524 218.545C213.853 229.623 205.667 246.046 205.074 263.582C204.534 279.805 210.504 296.666 223.234 307.245C235.964 317.825 254.004 320.682 269.774 316.432C285.964 312.063 298.774 300.129 303.454 284.015C307.994 268.399 305.104 250.484 295.104 237.515C283.394 222.317 263.464 216.504 244.884 216.843C209.024 217.51 176.414 239.167 157.324 268.598C147.693 283.299 141.583 300.005 139.464 317.427C138.453 326.248 138.614 335.163 139.944 343.942C141.774 356.035 145.504 367.73 148.054 379.673C152.384 399.987 152.724 426.114 133.364 439.212C114.664 451.872 90.3637 445.97 74.1637 432.245C59.1637 419.485 47.7737 399.649 49.7137 379.444C50.6337 369.909 55.1837 360.842 63.1037 355.189C70.4537 349.944 79.6936 348.222 88.6037 348.829C129.654 351.815 151.364 399.41 138.954 435.36C132.394 454.31 116.704 469.459 98.2037 477.043C79.6254 484.642 58.6879 484.085 40.5437 475.51C23.3397 467.462 9.6607 453.465 2.05366 436.126C1.47366 434.803 -0.466344 435.947 0.103656 437.251Z" fill="url(#paint0_linear)"/>
<defs>
<linearGradient id="paint0_linear" x1="524.5" y1="185.5" x2="-21.1975" y2="487.182" gradientUnits="userSpaceOnUse">
<stop stop-color="#5F5F6F" stop-opacity="0.01"/>
<stop offset="1" stop-color="#3E3E50"/>
</linearGradient>
</defs>
</svg>
