<svg width="888" height="322" viewBox="0 0 888 322" fill="none" xmlns="http://www.w3.org/2000/svg">
<path d="M8.38234 62.6934C-3.53467 87.2144 0.368151 117.296 15.6891 139.378C31.563 162.251 58.6625 172.936 85.9852 168.293C112.354 163.797 137.231 145.806 145.294 119.574C152.834 95.0351 145.027 62.4648 117.249 55.3982C93.7906 49.4343 65.7353 64.2527 59.3873 88.0254C53.0393 111.798 67.5504 137.138 88.4886 148.286C114.911 162.344 145.392 149.806 168.044 134.255C195.531 115.457 219.506 87.2523 253.74 81.0325C280.73 76.1288 309.277 85.7218 329.359 104.051C339.478 113.166 347.161 124.664 351.713 137.505C356.556 151.556 356.469 168.993 348.245 181.856C339.1 196.166 321.409 197.741 307.855 188.676C292.962 178.696 287.35 160.519 283.028 144.035C274.782 112.552 270.025 76.8017 283.918 46.1223C296.251 18.9742 324.016 -3.54378 355.18 1.35469C390.509 6.91085 412.208 39.6606 422.516 71.1924C428.104 88.3 431.494 106.09 434.984 123.723C438.534 141.649 441.964 159.616 446.359 177.377C454.722 211.02 466.86 244.165 488.731 271.491C509.244 297.126 537.682 316.555 570.918 320.035C601.861 323.318 632.948 313.827 659.817 298.884C693.414 280.243 721.769 253.579 750.536 228.469L842.817 147.934L887.063 109.314" stroke="url(#paint0_linear)"/>
<defs>
<linearGradient id="paint0_linear" x1="603.5" y1="286" x2="27" y2="-41" gradientUnits="userSpaceOnUse">
<stop stop-color="#5F5F6F" stop-opacity="0.01"/>
<stop offset="1" stop-color="#3E3E50"/>
</linearGradient>
</defs>
</svg>
