<svg width="477" height="710" viewBox="0 0 477 710" fill="none" xmlns="http://www.w3.org/2000/svg">
<path d="M325.713 57.0176C347.575 80.0476 367.135 104.805 383.819 131.865C391.298 143.956 398.202 157.198 403.38 170.44C406.256 177.925 407.407 187.713 401.654 192.895C394.75 199.228 383.819 196.349 375.19 194.046C367.135 192.319 359.656 189.44 352.177 185.986C326.864 174.471 265.881 124.956 238.266 149.138C217.555 166.986 258.402 214.773 270.483 229.167C290.619 252.773 314.207 272.924 337.795 292.5C362.533 312.651 387.846 332.226 410.283 355.257C421.789 366.772 432.145 379.438 441.35 393.832C445.377 400.741 449.404 407.65 452.856 414.559C455.158 419.165 456.883 423.771 458.609 428.377C460.911 435.862 464.362 446.225 458.034 452.558C454.007 456.589 448.254 457.74 443.076 457.164C430.994 456.013 419.488 446.801 408.557 441.619C399.928 437.589 391.298 432.983 382.669 428.377C363.108 417.438 343.547 405.923 324.562 393.256C286.592 368.499 249.772 342.014 212.952 315.53C177.283 290.197 141.039 265.439 103.068 243.561C82.3573 231.47 50.7154 211.319 25.9771 224.561C-25.8007 252.197 54.7425 348.923 76.6042 374.256C123.78 428.953 183.036 472.134 237.691 518.77C264.73 541.8 290.619 565.981 314.207 592.466C326.288 606.86 338.37 621.253 348.15 637.374C352.177 643.132 362.533 654.071 356.78 661.556C354.478 664.435 350.451 665.01 346.424 665.01C334.343 665.01 323.987 658.677 312.481 654.071C228.486 621.829 165.777 553.315 99.0414 495.74C83.508 481.922 62.7969 464.649 40.9352 464.649C28.2784 464.649 11.019 469.255 4.69059 481.346C-6.81559 502.073 5.266 534.891 15.0463 554.466C52.4413 629.314 129.533 672.495 200.871 709.343C203.172 710.495 205.473 707.04 203.172 705.313C137.587 665.586 63.9474 622.405 28.2783 551.588C18.498 532.012 5.84131 507.255 20.7993 486.528C30.0043 473.285 46.113 478.467 58.7698 483.073C80.6315 491.71 99.6166 513.588 117.451 529.709C146.217 556.194 174.982 582.678 205.473 606.284C234.814 629.314 265.881 650.041 300.399 664.435C316.508 671.344 356.78 692.071 371.162 673.071C386.12 652.92 353.903 618.375 342.972 603.981C322.836 577.496 299.249 553.891 275.086 531.436C224.459 485.376 168.654 445.074 119.177 396.711C93.2883 371.378 68.55 343.742 50.1401 312.651C39.2093 294.803 12.745 263.712 32.3055 242.985C50.1401 223.985 84.6586 249.894 100.192 259.106C173.256 301.712 238.841 354.105 309.029 400.741C345.274 424.922 382.668 446.801 422.365 464.649C440.199 472.71 463.787 483.073 474.143 458.892C484.498 433.559 464.362 400.165 451.13 380.014C433.296 353.529 409.708 331.651 384.97 310.924C358.506 288.469 330.315 267.742 305.002 243.561C293.496 232.622 239.417 179.077 253.224 162.38C267.031 146.259 323.412 188.289 337.219 195.198C357.355 204.986 390.148 219.955 411.434 206.137C434.446 191.168 418.913 161.804 409.133 143.956C389.572 107.683 364.834 74.8658 336.068 45.5026C329.74 39.7451 319.385 50.1086 325.713 57.0176Z" fill="#FED0DA"/>
<path d="M288.893 46.0781C292.345 54.1386 295.797 59.3205 304.426 62.775C313.056 65.6538 323.412 65.0781 330.891 59.8963C347.575 48.957 347.575 21.8966 332.617 9.2301C317.659 -3.43646 286.592 -3.43646 272.784 11.5331C254.95 30.5328 276.812 51.2599 293.496 61.0477C301.55 65.6537 309.029 52.9871 300.975 48.9568C291.77 43.7751 271.634 31.1087 284.291 19.5937C292.92 11.5332 313.632 11.5331 323.412 17.8663C334.918 25.3511 334.918 44.3508 323.412 51.8356C314.207 57.5931 297.523 54.7144 290.619 46.0781C289.468 44.9266 288.893 45.5024 288.893 46.0781Z" fill="#FED0DA"/>
<path d="M101.918 691.495C131.259 698.404 161.175 704.737 191.091 709.919C198.57 711.071 201.446 699.556 193.967 698.404C163.476 693.798 132.984 690.919 102.493 688.041C100.192 688.041 100.192 690.919 101.918 691.495Z" fill="#FED0DA"/>
<path d="M204.323 706.465C185.338 686.889 167.503 665.586 151.97 642.556C147.942 636.223 137.587 641.981 141.614 648.314C158.298 672.495 177.283 692.647 202.021 708.768C203.747 710.495 205.473 708.192 204.323 706.465Z" fill="#FED0DA"/>
<path d="M105.37 689.192C120.328 690.919 135.286 692.071 150.244 692.071C156.572 692.071 156.572 682.283 150.244 682.283C135.286 682.283 120.328 683.435 105.37 685.162C103.068 685.162 103.068 689.192 105.37 689.192Z" fill="#FED0DA"/>
<path d="M142.189 648.314C139.313 662.132 141.039 674.798 149.093 686.313C153.696 692.071 163.476 686.313 158.873 680.556C151.97 671.344 145.641 660.405 144.491 648.89C144.491 647.738 142.765 647.162 142.189 648.314Z" fill="#FED0DA"/>
<path d="M147.367 688.616C158.873 689.192 169.804 690.919 179.585 697.253C180.735 694.374 181.886 692.071 183.036 689.192C174.407 687.465 167.503 682.859 162.9 675.374C160.024 677.101 157.147 678.829 154.846 679.98C157.147 683.435 160.024 686.889 162.325 689.768C164.627 688.041 167.503 685.738 169.804 684.01C164.051 677.101 157.723 670.192 151.97 663.283C148.518 659.253 141.039 664.435 144.491 669.041C148.518 674.798 152.545 680.556 156.572 686.313C160.024 690.919 168.654 686.889 164.627 681.707C160.599 675.95 156.572 670.192 152.545 664.435C150.244 666.162 147.367 668.465 145.066 670.192C151.394 677.101 157.147 684.01 163.476 690.919C167.503 695.525 173.831 688.616 170.38 684.01C168.078 680.556 165.202 677.677 162.9 674.223C159.449 670.192 152.545 675.374 155.422 679.98C161.175 689.192 170.38 695.525 181.31 697.253C186.488 697.828 188.789 690.919 183.612 688.616C172.105 684.586 160.024 682.859 147.943 685.738C145.641 686.313 145.641 688.616 147.367 688.616Z" fill="#FED0DA"/>
<path d="M143.34 689.768C153.696 692.647 164.051 695.525 174.407 698.404C179.009 699.556 181.31 692.071 176.133 690.919C165.777 689.192 155.422 686.889 144.491 685.162C141.039 684.586 139.888 688.616 143.34 689.768Z" fill="#FED0DA"/>
<path d="M172.105 690.344C167.503 684.586 163.476 678.253 159.449 671.92C157.148 668.465 151.394 672.495 154.846 675.374C160.024 680.556 165.202 685.738 170.38 691.495C171.53 692.647 173.256 690.919 172.105 690.344Z" fill="#FED0DA"/>
</svg>
