<svg width="213" height="32" viewBox="0 0 213 32" fill="none" xmlns="http://www.w3.org/2000/svg">
<path d="M0.905963 31.161C5.47279 24.3669 12.4987 15.8308 20.2271 12.5209C30.4147 8.33994 30.9416 17.2245 36.738 22.2765C44.8178 29.2447 53.4245 22.7991 59.0452 16.1792C63.9633 10.2562 69.7597 2.24271 77.8394 8.51414C81.528 11.4757 83.9871 16.005 86.7974 19.8376C91.013 25.5864 96.2824 31.8578 104.011 31.6836C112.793 31.3352 117.887 23.3217 122.805 17.2245C127.372 11.6499 132.114 6.77208 139.492 12.5209C144.058 16.005 147.044 20.8828 151.963 24.0185C170.23 35.8646 196.401 33.4257 211.156 17.3987C213.088 15.3082 210.102 12.1725 207.994 14.263C191.307 30.29 163.555 30.29 147.571 13.2177C143.005 8.33996 137.735 2.76534 130.182 4.68161C124.035 6.42367 119.995 12.3467 116.306 17.0503C110.51 24.1927 103.308 29.9416 95.4041 21.9281C90.3104 16.7019 87.3244 9.55939 81.7037 4.68161C77.6638 1.19748 72.3944 -0.544577 67.1249 1.37169C63.612 2.76535 60.8017 5.37844 58.5182 8.33995C57.1131 9.90781 56.0592 11.6499 54.654 13.3919C50.9654 17.9213 43.7639 21.5797 38.8457 17.5729C33.4007 13.2177 31.2929 4.50742 22.3349 7.12051C12.1474 10.082 4.41891 21.9281 0.0277274 30.8126C-0.14792 31.161 0.554669 31.6836 0.905963 31.161Z" fill="#525260"/>
<path d="M186.916 18.2698C190.429 18.9667 194.469 17.9214 198.158 17.573C202.549 17.2246 206.94 16.702 211.156 16.702C213.615 16.5278 213.615 12.6952 211.156 12.8694C206.589 13.0436 202.022 13.3921 197.631 14.2631C193.942 14.9599 189.727 15.4825 186.741 17.9214C186.565 18.0956 186.741 18.2698 186.916 18.2698Z" fill="#525260"/>
<path d="M202.199 31.1612C208.171 28.0255 211.332 22.2767 211.508 15.831C211.684 13.2179 207.468 13.2179 207.468 15.831C207.293 21.2314 205.185 26.2834 201.496 30.4644C201.321 30.8128 201.672 31.5096 202.199 31.1612Z" fill="#525260"/>
</svg>
