<svg width="353" height="498" viewBox="0 0 353 498" fill="none" xmlns="http://www.w3.org/2000/svg">
<path d="M35.684 498.151C14.9462 487.803 1.98702 465.51 0.867583 442.691C-0.289214 419.051 12.4348 397.807 33.2525 386.777C53.3512 376.141 79.438 375.373 98.4654 388.871C116.263 401.499 127.881 427.492 112.825 446.65C100.108 462.825 73.5234 467.379 56.9262 454.649C40.3289 441.919 36.9754 417.324 45.3074 398.961C55.8272 375.795 82.8641 368.448 106.187 367.188C134.451 365.611 165.224 372.192 191.515 358.643C212.244 347.96 226.509 326.702 230.543 303.943C232.637 292.557 231.856 280.828 228.269 269.816C224.251 257.837 215.156 246.133 202.949 241.727C189.37 236.823 176.633 244.93 172.197 258.063C167.333 272.506 172.971 287.662 178.602 301.01C189.36 326.498 204.682 353.054 229.942 366.528C252.322 378.43 282.701 379.215 301.162 359.765C322.09 337.712 319.739 304.399 310.345 277.809C305.245 263.385 298.31 249.641 291.524 235.95C284.626 222.03 277.626 208.146 271.384 193.9C259.584 166.896 250.587 138.27 251.164 108.523C251.702 80.6177 260.796 52.7885 281.389 33.2197C300.539 14.9716 326.405 5.25665 352.255 1.40222" stroke="#525260"/>
</svg>
