<svg width="423" height="1120" viewBox="0 0 423 1120" fill="none" xmlns="http://www.w3.org/2000/svg">
<path d="M55.3367 12.2753C85.4725 -4.5273 123.76 -1.73635 152.752 16.0512C182.783 34.4814 198.212 67.9629 194.289 102.817C190.485 136.456 169.523 169.169 136.95 181.224C106.481 192.497 64.771 184.95 53.8653 150.354C44.6604 121.137 61.388 84.6331 90.9745 74.9205C120.561 65.2079 153.612 81.7404 169.188 107.404C188.831 139.79 175.158 179.196 157.12 208.925C135.323 244.994 101.391 277.295 95.9678 320.993C91.6923 355.446 105.845 390.834 130.434 414.905C142.671 427.042 157.746 435.932 174.295 440.77C192.395 445.89 214.42 444.539 230.088 433.233C247.52 420.659 248.251 398.193 235.832 381.712C222.162 363.603 198.796 357.807 177.659 353.518C137.292 345.339 91.7808 341.872 54.0041 361.61C20.5785 379.125 -5.89859 415.81 2.50839 454.839C12.0428 499.084 54.968 524.171 95.5437 534.952C117.558 540.796 140.277 543.813 162.806 546.968C185.71 550.178 208.656 553.234 231.41 557.523C274.515 565.696 317.26 578.676 353.343 604.366C387.195 628.462 413.768 663.012 420.53 704.76C426.88 743.625 417.1 783.581 400.131 818.594C378.967 862.373 347.293 900.097 317.612 938.234L222.418 1060.57L176.768 1119.22" stroke="url(#paint0_linear)" stroke-dasharray="8 8"/>
<defs>
<linearGradient id="paint0_linear" x1="197.5" y1="1232.5" x2="-465.631" y2="877.31" gradientUnits="userSpaceOnUse">
<stop stop-color="#484B57" stop-opacity="0.92"/>
<stop offset="0.0920466" stop-color="#484B57" stop-opacity="0"/>
<stop offset="0.357237" stop-color="#484B57" stop-opacity="0.84"/>
<stop offset="0.68093" stop-color="#484B57"/>
<stop offset="1" stop-color="#232326" stop-opacity="0"/>
</linearGradient>
</defs>
</svg>
