<svg width="395" height="482" viewBox="0 0 395 482" fill="none" xmlns="http://www.w3.org/2000/svg">
<path d="M300.926 480.846C331.744 483.753 362.175 467.626 379.554 442.543C397.554 416.557 398.124 383.488 382.308 356.285C367.029 330.038 337.994 310.75 306.891 312.622C277.797 314.375 246.275 335.645 249.821 367.995C252.821 395.312 279.747 419.243 307.552 416.527C335.357 413.811 356.522 388.292 360.039 361.59C364.466 327.897 338.998 300.48 313.444 282.587C282.511 260.845 242.975 246.583 222.731 212.66C206.77 185.914 205.604 151.741 217.097 123.09C222.76 108.702 231.926 95.9544 243.767 86.0018C256.779 75.2568 275.354 68.4072 292.305 72.0295C311.162 76.0556 319.881 94.2384 315.639 112.26C310.958 132.069 293.865 145.273 278.058 156.433C247.867 177.736 211.748 197.029 173.596 194.472C139.819 192.168 104.821 171.613 97.6209 136.526C89.4614 96.7489 115.644 60.6373 145.067 37.1222C161.032 24.3683 178.597 13.681 195.957 2.94935C213.604 -7.96348 231.342 -18.764 248.476 -30.5092C280.919 -52.7971 311.328 -78.901 331.675 -113.036C350.765 -145.055 360.1 -183.028 350.566 -219.753C341.736 -253.962 319.267 -283.237 292.68 -305.855C259.482 -334.157 219.84 -353.688 181.687 -374.278L59.3124 -440.332L0.631388 -472" stroke="#525260"/>
</svg>
