<svg width="440" height="101" viewBox="0 0 440 101" fill="none" xmlns="http://www.w3.org/2000/svg">
<path d="M5.85578 2.45337C5.85578 9.1068 5.51973 15.5586 5.51973 22.212C5.51973 23.0185 7.53591 23.0185 7.53591 22.212C7.53591 15.5586 7.19986 9.1068 7.19986 2.45337C7.19986 2.05013 5.85578 2.05013 5.85578 2.45337Z" fill="#BADEFF"/>
<path d="M5.85492 2.45338C4.84684 11.123 4.17478 19.7926 3.1667 28.2606C3.1667 29.2687 5.85492 29.2687 5.85492 28.2606C6.19094 19.591 6.86299 10.9214 7.53504 2.45338C7.53504 1.84853 6.19094 1.84853 5.85492 2.45338Z" fill="#BADEFF"/>
<path d="M9.88684 7.29222C7.19864 12.9376 6.52656 18.7845 6.86258 24.6315C6.86258 26.0428 10.5589 26.0428 10.5589 24.6315C9.88683 18.7845 10.5589 13.1392 11.567 7.29222C11.567 6.88899 10.2229 6.88899 9.88684 7.29222Z" fill="#BADEFF"/>
<path d="M10.2236 5.07442C9.88755 12.5343 9.21552 19.7926 8.8795 27.2525C8.8795 28.6638 12.2398 28.6638 12.2398 27.2525C11.9037 19.7926 11.2317 12.5343 10.8957 5.07442C10.8957 4.67118 10.2236 4.67118 10.2236 5.07442Z" fill="#BADEFF"/>
<path d="M2.15859 41.9707C-1.20167 47.8176 -0.193589 56.084 2.15859 62.1326C2.49461 63.3423 6.19091 63.1407 5.85489 61.931C5.18284 58.3018 4.17474 54.8743 3.83871 51.2451C3.50269 48.2209 3.83872 44.995 3.16667 41.9707C2.83065 41.5674 2.15859 41.7691 2.15859 41.9707Z" fill="#BADEFF"/>
<path d="M7.87208 43.1804C7.87208 50.6403 7.87209 57.8985 7.20004 65.3585C7.20004 66.3665 9.88826 66.3665 9.88826 65.3585C9.55223 57.8985 9.55224 50.6403 9.21622 43.1804C9.55224 42.5755 7.87208 42.5755 7.87208 43.1804Z" fill="#BADEFF"/>
<path d="M9.55154 44.3901C9.55154 51.0435 9.21552 57.4953 8.8795 64.1487C8.8795 65.5601 12.2398 65.5601 12.2398 64.1487C11.9037 57.4953 11.9037 51.0435 11.5677 44.3901C11.5677 43.5836 9.55154 43.5836 9.55154 44.3901Z" fill="#BADEFF"/>
<path d="M1.48727 78.867C-0.192856 84.7139 1.48726 91.5689 2.15931 97.4159C2.49534 99.0288 6.1916 99.0288 6.1916 97.4159C5.51955 91.3673 5.51955 84.5123 2.83135 78.867C2.83135 78.4637 1.8233 78.4637 1.48727 78.867Z" fill="#BADEFF"/>
<path d="M7.87168 80.2783C7.19963 86.9317 8.20773 93.3835 9.21581 100.037C9.55183 101.448 13.2481 101.247 12.5761 99.8353C9.55183 93.5851 9.21578 86.9317 9.5518 80.4799C9.5518 79.4718 7.87168 79.4718 7.87168 80.2783Z" fill="#BADEFF"/>
<path d="M11.9027 77.6573C11.5667 84.7139 11.5667 91.569 10.8947 98.6256C10.8947 99.8353 14.2549 99.8353 14.2549 98.6256C13.5829 91.569 13.5829 84.7139 13.2468 77.6573C13.2468 77.254 11.9027 77.254 11.9027 77.6573Z" fill="#BADEFF"/>
<path d="M14.927 4.87281C12.9108 4.46957 10.8947 4.26795 8.87851 3.86471C8.20646 4.46957 7.53441 5.07443 7.19838 5.8809C30.3841 6.68738 53.5699 6.28415 76.7556 6.48577C80.4519 6.48577 80.4519 2.85662 76.7556 2.85662C53.5699 2.85662 30.3841 2.45338 7.19838 3.25985C5.18223 3.25985 4.17415 4.87281 6.1903 5.67929C9.55055 7.09062 12.5748 6.88899 15.599 5.27604C15.599 5.27604 15.263 4.87281 14.927 4.87281Z" fill="#BADEFF"/>
<path d="M4.51093 11.123C30.3849 12.1311 56.5948 12.5343 82.4688 12.9376C86.1651 12.9376 86.1651 9.51005 82.4688 9.51005C56.5948 9.51005 30.3849 9.30842 4.51093 9.91328C3.16683 9.91328 3.16683 11.123 4.51093 11.123Z" fill="#BADEFF"/>
<path d="M115.398 4.67117C136.232 5.88089 158.073 4.46955 179.243 3.86469C182.267 3.86469 182.267 1.04202 179.243 1.04202C158.073 1.64688 135.896 1.64688 115.398 4.06631C114.39 3.86469 114.726 4.46955 115.398 4.67117Z" fill="#BADEFF"/>
<path d="M123.127 9.51007C141.945 9.10683 159.754 7.89711 178.908 9.30844C182.268 9.51006 182.268 6.28416 178.908 6.08254C160.762 4.87283 140.265 4.46959 122.791 8.30035C122.119 8.50197 122.119 9.51007 123.127 9.51007Z" fill="#BADEFF"/>
<path d="M201.421 3.66311C218.558 4.26796 235.695 3.46148 252.833 4.06634C255.857 4.06634 255.857 1.44529 252.833 1.24367C236.031 1.04205 217.886 0.437208 201.085 2.4534C200.077 2.65502 200.413 3.66311 201.421 3.66311Z" fill="#BADEFF"/>
<path d="M211.839 7.09063C229.312 8.30034 247.122 7.69549 264.595 9.10682C268.291 9.30844 268.963 6.28415 265.267 6.08253C248.13 5.07444 228.64 3.86472 211.503 6.28415C210.831 6.48577 211.167 7.09063 211.839 7.09063Z" fill="#BADEFF"/>
<path d="M293.829 1.84853C307.27 2.85662 320.711 2.45338 334.488 4.06633C337.512 4.46957 338.856 1.44528 335.832 1.24366C322.391 0.0339503 307.27 -0.974135 293.829 1.64691C293.829 1.84853 293.829 1.84853 293.829 1.84853Z" fill="#BADEFF"/>
<path d="M299.877 7.09058C304.918 8.09868 310.63 7.49383 316.007 7.49383C322.391 7.49383 328.44 7.69544 334.824 8.09868C338.184 8.3003 338.184 5.0744 334.824 5.0744C324.407 4.87278 308.95 3.66307 299.541 6.88897C299.541 6.68735 299.877 6.88897 299.877 7.09058Z" fill="#BADEFF"/>
<path d="M366.074 2.85661C388.587 3.66309 411.101 3.8647 433.951 5.07442C436.975 5.27603 436.975 2.25175 433.951 2.25175C411.773 0.840415 388.251 0.43718 366.074 2.05013C365.066 2.25175 365.066 2.85661 366.074 2.85661Z" fill="#BADEFF"/>
<path d="M376.155 5.67928C391.948 8.0987 411.438 6.48575 427.567 6.48575C431.263 6.48575 431.263 2.85661 427.567 3.05822C411.438 3.46146 391.612 2.05013 376.155 4.8728C375.483 5.07442 375.483 5.67928 376.155 5.67928Z" fill="#BADEFF"/>
<path d="M4.51093 98.8272C24.3364 99.0289 44.1619 98.0208 63.9874 97.6175C66.3396 97.6175 66.3396 95.1981 63.9874 95.3997C44.1619 96.0046 24.0004 96.4078 4.51093 97.6175C3.16683 97.6175 3.16683 98.8272 4.51093 98.8272Z" fill="#BADEFF"/>
<path d="M9.2151 95.803C8.20703 95.3997 18.2878 95.1981 19.9679 95.1981C26.0164 95.1981 31.7288 95.1981 37.7773 95.3997C48.8661 95.3997 59.6189 95.6014 70.7077 95.6014C74.404 95.6014 74.404 91.9722 70.7077 92.1738C48.8661 92.1738 27.0244 92.1738 5.18276 92.7787C3.50263 92.7787 2.49458 93.9884 3.83868 94.7949C6.19086 96.4078 5.51881 96.0046 8.87906 96.6094C9.21508 96.6094 9.88715 96.0046 9.2151 95.803Z" fill="#BADEFF"/>
<path d="M86.5005 92.1738C107.67 91.569 128.84 91.569 150.345 92.1738C152.361 92.1738 152.361 90.3592 150.345 90.3592C129.176 89.956 107.67 90.1576 86.5005 91.3673C85.8284 91.5689 85.8284 92.3754 86.5005 92.1738Z" fill="#BADEFF"/>
<path d="M96.917 96.4078C113.382 96.0045 129.847 95.6013 146.313 96.4078C149.001 96.6094 149.001 93.9884 146.313 93.9884C129.847 93.5851 113.046 93.7868 96.917 95.803C95.9089 95.6013 96.2449 96.4078 96.917 96.4078Z" fill="#BADEFF"/>
<path d="M176.891 89.5527C192.684 90.3592 208.478 90.1576 224.271 90.1576C227.295 90.1576 227.295 87.3349 224.271 87.5366C208.478 87.7382 192.684 87.335 176.891 88.1414C175.547 88.1414 175.547 89.3511 176.891 89.5527Z" fill="#BADEFF"/>
<path d="M174.875 94.19C193.357 93.3835 211.838 92.9803 230.32 93.5851C232.336 93.5851 232.336 91.7706 230.32 91.7706C211.838 91.3673 193.021 91.5689 174.539 93.1819C173.531 93.1819 173.867 94.19 174.875 94.19Z" fill="#BADEFF"/>
<path d="M267.283 86.1252C286.101 87.1333 305.926 85.722 324.744 85.3187C327.768 85.3187 327.768 82.2944 324.744 82.4961C305.59 83.3025 285.765 83.1009 266.947 85.3187C266.275 85.3187 266.611 86.1252 267.283 86.1252Z" fill="#BADEFF"/>
<path d="M269.299 90.7625C288.789 90.7625 307.606 89.3511 327.095 90.5609C330.456 90.7625 330.456 87.7382 327.095 87.5366C308.614 86.5285 287.108 86.1252 268.963 89.7544C267.955 89.956 268.291 90.7625 269.299 90.7625Z" fill="#BADEFF"/>
<path d="M367.754 85.5203C385.227 87.9398 405.724 86.5284 423.534 85.3187C426.558 85.1171 426.558 82.0928 423.534 82.4961C405.052 83.9074 386.235 83.1009 368.09 84.5123C367.082 84.5123 366.746 85.5203 367.754 85.5203Z" fill="#BADEFF"/>
<path d="M370.107 90.5609C392.62 89.7544 415.134 89.5528 437.984 90.1576C440.672 90.1576 440.672 87.7382 437.984 87.7382C415.47 87.335 392.62 87.5366 370.107 88.9479C368.427 88.9479 368.427 90.5609 370.107 90.5609Z" fill="#BADEFF"/>
<path d="M429.919 12.1311C428.239 10.9214 427.231 9.10679 428.239 7.69545C428.911 6.88898 426.895 6.68736 426.559 7.49384C426.223 9.51003 426.559 11.123 428.911 12.7359C429.583 12.9375 430.591 12.5343 429.919 12.1311Z" fill="#BADEFF"/>
<path d="M422.191 5.07442C422.191 5.07442 420.847 16.9699 420.847 17.5748C420.847 22.0104 420.511 26.446 420.511 30.8817C420.511 33.0995 426.559 33.0995 426.559 30.8817C426.559 26.0428 426.559 21.4056 426.559 16.5667C426.559 14.1473 428.239 7.09061 425.551 4.8728C423.871 3.46147 420.511 3.25985 420.511 5.27604C420.511 5.47766 420.847 5.67928 421.183 5.8809C421.519 5.8809 421.855 5.8809 421.855 6.08252C422.527 6.08252 423.199 5.27604 422.191 5.07442Z" fill="#BADEFF"/>
<path d="M427.566 6.28414C427.23 14.1473 427.566 21.8088 427.566 29.672C427.566 31.4865 432.606 31.4865 432.27 29.672C431.262 21.8088 430.926 14.1473 429.582 6.28414C429.582 5.47767 427.566 5.47767 427.566 6.28414Z" fill="#BADEFF"/>
<path d="M420.175 59.1083C418.495 63.1407 419.167 67.1731 419.167 71.2054C419.167 75.8427 418.831 80.4799 418.495 85.1172C418.159 87.335 424.207 87.335 424.207 85.1172C424.543 77.0524 426.559 66.7698 421.183 59.1083C421.183 58.9067 420.511 58.7051 420.175 59.1083Z" fill="#BADEFF"/>
<path d="M425.215 57.8986C425.551 66.9714 427.567 76.0443 427.903 84.9155C427.903 86.7301 432.607 86.5285 432.271 84.5123C429.583 75.641 428.911 66.5682 426.223 57.6969C426.223 57.4953 425.215 57.697 425.215 57.8986Z" fill="#BADEFF"/>
<path d="M420.51 45.5998C420.174 46.0031 420.174 46.4063 419.838 46.8096C419.166 48.4225 423.871 48.4225 422.863 46.8096C422.527 46.4063 422.527 46.0031 422.19 45.5998C422.19 44.995 420.846 44.995 420.51 45.5998Z" fill="#BADEFF"/>
<path d="M426.895 44.3901C425.886 47.2128 426.559 49.8338 428.239 52.4549C428.911 53.463 431.935 52.6565 430.927 51.4468C428.911 49.4306 427.903 47.0112 428.575 44.5917C428.575 43.9869 427.231 43.5836 426.895 44.3901Z" fill="#BADEFF"/>
</svg>
