<svg width="24" height="24" fill="none" xmlns="http://www.w3.org/2000/svg"><path fill-rule="evenodd" clip-rule="evenodd" d="M3.934 9.674l6.768 3.972c.073.043.15.074.227.094v7.704l-6.512-3.918c-.3-.18-.483-.508-.483-.86V9.673zm15.738-.106v7.097a1 1 0 01-.483.86l-6.511 3.919v-7.772a.945.945 0 00.047-.026l6.947-4.078z" fill="#27272E"/><path fill-rule="evenodd" clip-rule="evenodd" d="M4.147 7.746a.987.987 0 01.309-.262l6.885-3.728a.97.97 0 01.925 0l6.885 3.728a.975.975 0 01.248.192l-7.549 4.43a.881.881 0 00-.137.1.881.881 0 00-.137-.1l-7.429-4.36z" fill="#FA406D"/></svg>