<svg width="835" height="662" fill="none" xmlns="http://www.w3.org/2000/svg"><path opacity=".3" d="M832.701 86.849c-5.791-30.41-29.78-55.152-58.744-64.865-30.005-10.06-61.965-1.406-83.718 21.355-20.984 21.98-31.442 55.234-20.975 84.588 9.793 27.457 39.031 51.816 69.152 39.409 25.435-10.482 40.945-43.004 30.585-68.955-10.359-25.951-40.798-39.18-67.456-35.128-33.634 5.123-52.904 37.214-62.991 66.738-12.289 35.76-14.988 77.703-41.969 106.587-21.273 22.772-53.811 33.401-84.567 30.334a93.075 93.075 0 01-43.098-15.297c-13.959-9.508-25.721-25.444-26.961-42.733-1.383-19.233 13.673-32.667 32.186-33.607 20.354-1.016 37.815 11.728 52.951 23.806 28.9 23.071 57.517 52.395 65.689 89.753 7.196 33.084-2.819 72.419-34.554 89.097-35.979 18.906-78.002 3.805-108.814-17.913-16.714-11.785-31.886-25.684-47.044-39.371-15.411-13.914-30.74-27.946-46.81-41.136-30.473-24.96-64.05-46.905-102.546-56.95-36.11-9.427-75.229-7.828-107.89 11.548-30.437 18-52.329 47.727-66.672 79.558-17.966 39.762-25.703 83.273-34.872 125.649L14.16 575.237.056 640.412c-.304 1.403 1.84 2.045 2.154.653l29.073-134.29c9.451-43.689 17.95-87.711 28.844-131.065 9.707-38.593 23.415-77.209 49.433-108.006 11.522-13.64 25.241-25.546 41.008-34.053a124.544 124.544 0 0155.821-14.473c84.765-2.29 148.113 61.987 206.736 114.139 27.936 24.838 59.094 50.435 97.67 54.692 16.675 1.855 34.209-.369 49.114-8.397a68.813 68.813 0 0030.087-33.208c13.389-30.454 7.365-65.269-9.39-93.055-9.392-15.528-21.641-29.155-34.944-41.378-13.597-12.48-28.549-25.553-45.41-33.342-14.359-6.629-32.203-8.492-46.08.43-12.394 7.979-16.607 22.536-13.456 36.482 6.862 30.376 37.01 48.558 65.963 52.951 28.714 4.348 59.451-3.335 82.135-21.623 28.856-23.299 36.551-60.571 45.518-94.602 8.483-32.233 22.432-71.722 56.923-84.114 27.55-9.9 63.444 2.311 75.268 30.098 11.968 28.07-8.589 65.429-38.984 69.77-36.427 5.215-61.249-35.047-60.101-67.068 1.148-32.02 22.527-62.84 52.05-75.333 30.736-12.983 66.48-2.475 89.254 20.808a80.086 80.086 0 0121.746 40.937c.275 1.437 2.448.87 2.212-.516z" fill="url(#paint0_linear)"/><defs><linearGradient id="paint0_linear" x1="369" y1="296.5" x2="780" y2="0" gradientUnits="userSpaceOnUse"><stop stop-color="#5F5F6F" stop-opacity=".01"/><stop offset="1" stop-color="#AEAEBB"/></linearGradient></defs></svg>