<svg width="773" height="487" fill="none" xmlns="http://www.w3.org/2000/svg"><path d="M-10.896 438.2c14.37 33.3 52.1 54.31 87.9 45.61a77.187 77.187 0 0043.54-28.79 69.361 69.361 0 0012.6-50.21c-2.25-17.09-10.45-33.63-23.74-44.8-12.23-10.29-29.62-15.56-45.4-12-16.36 3.73-26.95 17.71-27.69 34.23-.81 18.12 8.2 35.69 20.69 48.27 13.17 13.19 31.37 21.58 50.18 18.13 18.81-3.45 31.08-18.14 33.89-36.67 3.32-21.86-5.3-42.65-9.22-63.79a104.362 104.362 0 014.87-55.28c12.55-34.13 41.78-62.78 77.52-71.37 19.56-4.7 42.379-3.7 59.089 8.57 15.21 11.17 21.64 31.25 17.94 49.48-3.74 18.41-17.849 31.95-36.139 35.78-18.13 3.79-37.81-2.28-48.85-17.55-10.59-14.63-12.48-34.62-6.68-51.5 6.4-18.5 22.4-32.04 40.5-38.5 41-14.51 83.06 7.57 109.28 38.92 27.46 32.83 40.71 74.48 65 109.35 20.95 30.09 55 59.27 94 56.84 38.62-2.37 65.62-35.65 77.51-69.84 15.15-43.55 12.72-91 25.78-135.09 11.72-39.58 38.19-79.16 81-88.53a66.153 66.153 0 0155.59 12.46c14.56 11.44 24.86 29.33 22.91 48.27-2 19.6-16.51 36.34-34.14 44.19-21 9.34-46.14 6.28-66.21-4-32.31-16.57-52.82-52.57-52.82-88.64.08-42.58 30.6-76.84 64.34-99.05 18.73-12.32 39-22 59.23-31.59" stroke="url(#paint0_linear)" stroke-width="2"/><defs><linearGradient id="paint0_linear" x1="771.411" y1="66.594" x2="200.529" y2="66.594" gradientUnits="userSpaceOnUse"><stop stop-color="#5F5F6F" stop-opacity=".01"/><stop offset="1" stop-color="#3E3E50"/></linearGradient></defs></svg>