<svg width="785" height="485" fill="none" xmlns="http://www.w3.org/2000/svg"><path d="M.104 437.251c14.37 33.143 52.1 54.055 87.9 45.395 17.416-4.229 32.81-14.36 43.54-28.654a68.79 68.79 0 0012.6-49.974c-2.25-17.01-10.45-33.472-23.74-44.589-12.23-10.242-29.62-15.487-45.4-11.944-16.36 3.713-26.95 17.627-27.69 34.069-.81 18.035 8.2 35.522 20.69 48.043 13.17 13.128 31.37 21.479 50.18 18.045 18.81-3.434 31.08-18.055 33.89-36.498 3.32-21.757-5.3-42.449-9.22-63.49a103.416 103.416 0 014.87-55.019c12.55-33.97 41.78-62.485 77.52-71.035 19.56-4.678 42.38-3.682 59.09 8.53 15.21 11.117 21.64 31.103 17.94 49.247-3.74 18.324-17.85 31.8-36.14 35.612-18.13 3.772-37.81-2.269-48.85-17.468-10.59-14.561-12.48-34.457-6.68-51.257 6.4-18.413 22.4-31.89 40.5-38.319 41-14.442 83.06 7.534 109.28 38.737 27.46 32.675 40.71 74.129 65 108.835 20.95 29.949 55 58.992 94 56.573 38.62-2.359 65.62-35.482 77.51-69.512 15.15-43.345 12.72-90.571 25.78-134.454 11.72-39.394 38.19-78.788 81-88.114 19.46-4.426 39.889.131 55.59 12.402 14.56 11.386 24.86 29.192 22.91 48.043-2 19.508-16.51 36.169-34.14 43.982-21 9.296-46.14 6.25-66.21-3.981-32.31-16.492-52.82-52.323-52.82-88.223.08-42.38 30.6-76.479 64.34-98.584 18.73-12.262 39-21.897 59.23-31.442 1.31-.617.17-2.548-1.14-1.99-39.52 18.721-81.17 38.816-106.42 76.07-10.62 15.646-17.51 33.741-18.2 52.751a102.734 102.734 0 0011.46 50.043c17.06 33.392 53.3 57.369 91.83 52.482 18.48-2.339 35.56-12.212 45.84-27.868a50.557 50.557 0 004.06-48.899c-7.23-16.024-21.69-28.495-38.08-34.646-17.4-6.539-36.68-4.708-53.61 2.408-39 16.403-60.4 55.07-70.34 94.165-5.62 22.066-8.14 44.689-11.09 67.223-3.1 23.737-6.89 47.993-16.92 69.969-8.17 17.915-20.73 34.487-37.57 45.087a71.23 71.23 0 01-58 8.042c-41.51-11.944-67.51-49.665-86.69-85.596-19.63-36.766-37.44-76.797-73-101.301-16.43-11.326-36-18.91-56.18-19.03-18.28-.119-36.81 5.813-51 17.428-13.671 11.078-21.857 27.501-22.45 45.037-.54 16.223 5.43 33.084 18.16 43.663 12.73 10.58 30.77 13.437 46.54 9.187 16.19-4.369 29-16.303 33.68-32.417 4.54-15.616 1.65-33.531-8.35-46.5-11.71-15.198-31.64-21.011-50.22-20.672-35.86.667-68.47 22.324-87.56 51.755a114.28 114.28 0 00-17.86 48.829 100.562 100.562 0 00.48 26.515c1.83 12.093 5.56 23.788 8.11 35.731 4.33 20.314 4.67 46.441-14.69 59.539-18.7 12.66-43 6.758-59.2-6.967-15-12.76-26.39-32.596-24.45-52.801.92-9.535 5.47-18.602 13.39-24.255 7.35-5.245 16.59-6.967 25.5-6.36 41.05 2.986 62.76 50.581 50.35 86.531-6.56 18.95-22.25 34.099-40.75 41.683a71.576 71.576 0 01-57.66-1.533c-17.204-8.048-30.883-22.045-38.49-39.384-.58-1.323-2.52-.179-1.95 1.125z" fill="url(#paint0_linear)"/><defs><linearGradient id="paint0_linear" x1="524.5" y1="185.5" x2="-21.198" y2="487.182" gradientUnits="userSpaceOnUse"><stop stop-color="#5F5F6F" stop-opacity=".01"/><stop offset="1" stop-color="#3E3E50"/></linearGradient></defs></svg>