<svg width="806" height="654" fill="none" xmlns="http://www.w3.org/2000/svg"><path d="M1.385 65.731c7.097-30.02 32.039-53.595 61.266-61.99 30.278-8.693 61.676 1.328 82.303 24.945 19.898 22.805 28.833 56.372 17.133 85.134-10.946 26.904-41.09 49.868-70.494 36.189-24.829-11.554-38.82-44.614-27.377-69.993 11.443-25.38 42.291-37.21 68.62-32.002 33.218 6.58 50.966 39.376 59.696 69.213 10.645 36.141 11.483 78.016 37.04 107.959 20.15 23.607 52.036 35.621 82.752 33.922a92.57 92.57 0 0043.527-13.332c14.298-8.852 26.695-24.198 28.689-41.356 2.222-19.087-12.158-33.123-30.524-34.874-20.195-1.907-38.117 10.011-53.699 21.369-29.751 21.696-59.497 49.63-69.267 86.462-8.611 32.619-.384 72.22 30.437 90.221 34.943 20.405 77.392 7.222 108.985-13.043 17.138-10.998 32.836-24.166 48.51-37.126 15.936-13.173 31.796-26.468 48.355-38.892 31.399-23.507 65.751-43.876 104.47-52.182 36.321-7.796 75.148-4.481 106.77 16.246 29.472 19.259 49.932 49.818 62.793 82.138 16.114 40.376 21.892 84.033 29.144 126.624l23.273 136.61 11.155 65.506" stroke="url(#paint0_linear)" stroke-dasharray="8 8"/><defs><linearGradient id="paint0_linear" x1="845.499" y1="630.5" x2="263.752" y2="857.995" gradientUnits="userSpaceOnUse"><stop stop-color="#484B57" stop-opacity="0"/><stop offset=".227" stop-color="#484B57" stop-opacity=".84"/><stop offset=".681" stop-color="#484B57"/><stop offset="1" stop-color="#232326" stop-opacity="0"/></linearGradient></defs></svg>