<svg width="888" height="322" fill="none" xmlns="http://www.w3.org/2000/svg"><path d="M8.382 62.693C-3.535 87.214.368 117.296 15.69 139.378c15.874 22.873 42.974 33.558 70.296 28.915 26.369-4.496 51.246-22.487 59.309-48.719 7.54-24.539-.267-57.11-28.045-64.176-23.458-5.964-51.514 8.855-57.862 32.627-6.348 23.773 8.163 49.113 29.102 60.261 26.422 14.058 56.903 1.52 79.555-14.031 27.487-18.798 51.462-47.003 85.696-53.222 26.99-4.904 55.537 4.689 75.619 23.018a81.81 81.81 0 0122.354 33.454c4.843 14.051 4.756 31.488-3.468 44.351-9.145 14.31-26.836 15.885-40.39 6.82-14.893-9.98-20.505-28.157-24.827-44.641-8.246-31.483-13.003-67.233.89-97.913 12.333-27.148 40.098-49.666 71.262-44.767 35.329 5.556 57.028 38.306 67.336 69.837 5.588 17.108 8.978 34.898 12.468 52.531 3.55 17.926 6.98 35.893 11.375 53.654 8.363 33.643 20.501 66.788 42.372 94.114 20.513 25.635 48.951 45.064 82.187 48.544 30.943 3.283 62.03-6.208 88.899-21.151 33.597-18.641 61.952-45.305 90.719-70.415l92.281-80.535 44.246-38.62" stroke="url(#paint0_linear)"/><defs><linearGradient id="paint0_linear" x1="603.5" y1="286" x2="27" y2="-41" gradientUnits="userSpaceOnUse"><stop stop-color="#5F5F6F" stop-opacity=".01"/><stop offset="1" stop-color="#3E3E50"/></linearGradient></defs></svg>