<svg width="863" height="777" fill="none" xmlns="http://www.w3.org/2000/svg"><path d="M64.727-22.83c-26.78 15.526-42.193 46.325-41.78 76.837.431 31.609 19.166 58.864 47.838 71.83 27.68 12.499 62.518 11.346 86.754-8.236 22.67-18.32 35.987-53.94 14.317-78.219-18.302-20.5-54.12-24.35-75.181-5.996-21.062 18.354-23.478 51.42-10.838 75.203 15.957 30.002 52.611 37.538 83.806 37.27 37.808-.257 78.278-11.599 114.456 4.267 28.524 12.51 49.314 39.656 56.591 69.656a92.891 92.891 0 01-.181 45.681c-4.356 16.304-15.502 32.665-31.407 39.558-17.691 7.67-35.347-2.072-42.356-19.208-7.69-18.847-1.439-39.521 4.951-57.784 12.213-34.874 30.42-71.553 62.968-91.622 28.838-17.735 69.268-21.318 95.501 3.068 29.738 27.65 29.386 72.253 19.083 108.481-5.593 19.654-13.69 38.554-21.593 57.37-8.033 19.131-16.204 38.223-23.336 57.734-13.474 36.983-23.077 75.892-19.825 115.497 3.047 37.153 17.494 73.491 46.578 97.857 27.051 22.726 62.342 33.516 97.121 36.496 43.462 3.768 87.077-3.345 130.096-8.733l137.987-17.269 66.164-8.286" stroke="url(#paint0_linear)"/><defs><linearGradient id="paint0_linear" x1="511.5" y1="594" x2="100.141" y2="23.119" gradientUnits="userSpaceOnUse"><stop stop-color="#FAB8C4" stop-opacity="0"/><stop offset="1" stop-color="#F0D0D6"/></linearGradient></defs></svg>