<svg width="805" height="654" fill="none" xmlns="http://www.w3.org/2000/svg"><path d="M804.271 65.731c-7.097-30.02-32.038-53.595-61.265-61.99-30.278-8.693-61.676 1.328-82.304 24.945-19.897 22.805-28.832 56.372-17.133 85.134 10.946 26.904 41.09 49.868 70.494 36.189 24.829-11.554 38.82-44.614 27.377-69.993-11.443-25.38-42.291-37.21-68.62-32.002-33.218 6.58-50.965 39.376-59.696 69.213-10.645 36.141-11.483 78.016-37.04 107.959-20.15 23.607-52.036 35.621-82.752 33.922a92.566 92.566 0 01-43.526-13.332c-14.299-8.852-26.696-24.198-28.69-41.356-2.221-19.087 12.158-33.123 30.525-34.874 20.194-1.907 38.116 10.011 53.698 21.369 29.751 21.696 59.497 49.63 69.267 86.462 8.611 32.619.384 72.22-30.437 90.221-34.943 20.405-77.392 7.222-108.985-13.043-17.138-10.998-32.836-24.166-48.509-37.126-15.937-13.173-31.797-26.468-48.356-38.892-31.399-23.507-65.751-43.876-104.47-52.182-36.321-7.796-75.147-4.481-106.77 16.246-29.472 19.259-49.932 49.818-62.793 82.138-16.114 40.376-21.892 84.033-29.144 126.624l-23.273 136.61L.714 653.479" stroke="#999FAE" stroke-dasharray="8 8"/></svg>