<svg width="477" height="710" fill="none" xmlns="http://www.w3.org/2000/svg"><path d="M325.713 57.018c21.862 23.03 41.422 47.787 58.106 74.847 7.479 12.091 14.383 25.333 19.561 38.575 2.876 7.485 4.027 17.273-1.726 22.455-6.904 6.333-17.835 3.454-26.464 1.151-8.055-1.727-15.534-4.606-23.013-8.06-25.313-11.515-86.296-61.03-113.911-36.848-20.711 17.848 20.136 65.635 32.217 80.029 20.136 23.606 43.724 43.757 67.312 63.333 24.738 20.151 50.051 39.726 72.488 62.757 11.506 11.515 21.862 24.181 31.067 38.575 4.027 6.909 8.054 13.818 11.506 20.727 2.302 4.606 4.027 9.212 5.753 13.818 2.302 7.485 5.753 17.848-.575 24.181-4.027 4.031-9.78 5.182-14.958 4.606-12.082-1.151-23.588-10.363-34.519-15.545-8.629-4.03-17.259-8.636-25.888-13.242-19.561-10.939-39.122-22.454-58.107-35.121-37.97-24.757-74.79-51.242-111.61-77.726-35.669-25.333-71.913-50.091-109.884-71.969-20.71-12.091-52.353-32.242-77.09-19-51.779 27.636 28.764 124.362 50.626 149.695 47.176 54.697 106.432 97.878 161.087 144.514 27.039 23.03 52.928 47.211 76.516 73.696 12.081 14.394 24.163 28.787 33.943 44.908 4.027 5.758 14.383 16.697 8.63 24.182-2.302 2.879-6.329 3.454-10.356 3.454-12.081 0-22.437-6.333-33.943-10.939-83.995-32.242-146.704-100.756-213.44-158.331-15.533-13.818-36.244-31.091-58.106-31.091-12.657 0-29.916 4.606-36.244 16.697-11.507 20.727.575 53.545 10.355 73.12 37.395 74.848 114.487 118.029 185.825 154.877 2.301 1.152 4.602-2.303 2.301-4.03-65.585-39.727-139.225-82.908-174.894-153.725-9.78-19.576-22.437-44.333-7.479-65.06 9.205-13.243 25.314-8.061 37.97-3.455 21.863 8.637 40.848 30.515 58.682 46.636 28.766 26.485 57.531 52.969 88.022 76.575 29.341 23.03 60.408 43.757 94.926 58.151 16.109 6.909 56.381 27.636 70.763 8.636 14.958-20.151-17.259-54.696-28.19-69.09-20.136-26.485-43.723-50.09-67.886-72.545-50.627-46.06-106.432-86.362-155.909-134.725-25.889-25.333-50.627-52.969-69.037-84.06-10.93-17.848-37.395-48.939-17.834-69.666 17.834-19 52.353 6.909 67.886 16.121 73.064 42.606 138.649 94.999 208.837 141.635 36.245 24.181 73.639 46.06 113.336 63.908 17.834 8.061 41.422 18.424 51.778-5.757 10.355-25.333-9.781-58.727-23.013-78.878-17.834-26.485-41.422-48.363-66.16-69.09-26.464-22.455-54.655-43.182-79.968-67.363-11.506-10.939-65.585-64.484-51.778-81.181 13.807-16.121 70.188 25.909 83.995 32.818 20.136 9.788 52.929 24.757 74.215 10.939 23.012-14.969 7.479-44.333-2.301-62.181-19.561-36.273-44.299-69.09-73.065-98.453-6.328-5.758-16.683 4.606-10.355 11.515z" fill="#FED0DA"/><path d="M288.893 46.078c3.452 8.06 6.904 13.242 15.533 16.697 8.63 2.879 18.986 2.303 26.465-2.879 16.684-10.939 16.684-38 1.726-50.666-14.958-12.666-46.025-12.666-59.833 2.303-17.834 19 4.028 39.727 20.712 49.515 8.054 4.606 15.533-8.06 7.479-12.091-9.205-5.182-29.341-17.848-16.684-29.363 8.629-8.06 29.341-8.06 39.121-1.728 11.506 7.485 11.506 26.485 0 33.97-9.205 5.757-25.889 2.878-32.793-5.758-1.151-1.151-1.726-.576-1.726 0zM101.918 691.495c29.341 6.909 59.257 13.242 89.173 18.424 7.479 1.152 10.355-10.363 2.876-11.515-30.491-4.606-60.983-7.485-91.474-10.363-2.301 0-2.301 2.878-.575 3.454z" fill="#FED0DA"/><path d="M204.323 706.465c-18.985-19.576-36.82-40.879-52.353-63.909-4.028-6.333-14.383-.575-10.356 5.758 16.684 24.181 35.669 44.333 60.407 60.454 1.726 1.727 3.452-.576 2.302-2.303zm-98.953-17.273c14.958 1.727 29.916 2.879 44.874 2.879 6.328 0 6.328-9.788 0-9.788-14.958 0-29.916 1.152-44.874 2.879-2.302 0-2.302 4.03 0 4.03z" fill="#FED0DA"/><path d="M142.189 648.314c-2.876 13.818-1.15 26.484 6.904 37.999 4.603 5.758 14.383 0 9.78-5.757-6.903-9.212-13.232-20.151-14.382-31.666 0-1.152-1.726-1.728-2.302-.576z" fill="#FED0DA"/><path d="M147.367 688.616c11.506.576 22.437 2.303 32.218 8.637 1.15-2.879 2.301-5.182 3.451-8.061-8.629-1.727-15.533-6.333-20.136-13.818-2.876 1.727-5.753 3.455-8.054 4.606 2.301 3.455 5.178 6.909 7.479 9.788 2.302-1.727 5.178-4.03 7.479-5.758-5.753-6.909-12.081-13.818-17.834-20.727-3.452-4.03-10.931 1.152-7.479 5.758l12.081 17.272c3.452 4.606 12.082.576 8.055-4.606l-12.082-17.272c-2.301 1.727-5.178 4.03-7.479 5.757 6.328 6.909 12.081 13.818 18.41 20.727 4.027 4.606 10.355-2.303 6.904-6.909-2.302-3.454-5.178-6.333-7.48-9.787-3.451-4.031-10.355 1.151-7.478 5.757 5.753 9.212 14.958 15.545 25.888 17.273 5.178.575 7.479-6.334 2.302-8.637-11.507-4.03-23.588-5.757-35.669-2.878-2.302.575-2.302 2.878-.576 2.878z" fill="#FED0DA"/><path d="M143.34 689.768l31.067 8.636c4.602 1.152 6.903-6.333 1.726-7.485-10.356-1.727-20.711-4.03-31.642-5.757-3.452-.576-4.603 3.454-1.151 4.606z" fill="#FED0DA"/><path d="M172.105 690.344c-4.602-5.758-8.629-12.091-12.656-18.424-2.301-3.455-8.055.575-4.603 3.454 5.178 5.182 10.356 10.364 15.534 16.121 1.15 1.152 2.876-.576 1.725-1.151z" fill="#FED0DA"/></svg>