<svg width="213" height="32" fill="none" xmlns="http://www.w3.org/2000/svg"><path d="M.906 31.161c4.567-6.794 11.593-15.33 19.321-18.64 10.188-4.181 10.715 4.703 16.511 9.755 8.08 6.969 16.687.523 22.307-6.097C63.963 10.256 69.76 2.243 77.84 8.514c3.689 2.962 6.148 7.491 8.958 11.324 4.216 5.748 9.485 12.02 17.214 11.846 8.782-.349 13.876-8.362 18.794-14.46 4.567-5.574 9.309-10.452 16.687-4.703 4.566 3.484 7.552 8.362 12.471 11.497 18.267 11.847 44.438 9.408 59.193-6.62 1.932-2.09-1.054-5.226-3.162-3.135-16.687 16.027-44.439 16.027-60.423-1.045-4.566-4.878-9.836-10.453-17.389-8.536-6.147 1.742-10.187 7.665-13.876 12.368-5.796 7.143-12.998 12.892-20.902 4.878-5.094-5.226-8.08-12.369-13.7-17.246-4.04-3.485-9.31-5.227-14.58-3.31-3.512 1.393-6.322 4.006-8.606 6.968-1.405 1.568-2.459 3.31-3.864 5.052-3.689 4.53-10.89 8.188-15.808 4.18-5.447-4.353-7.554-13.064-16.512-10.45C12.147 10.082 4.419 21.928.028 30.813c-.176.348.527.87.878.348z" fill="#525260"/><path d="M186.916 18.27c3.513.697 7.553-.349 11.242-.697 4.391-.348 8.782-.871 12.998-.871 2.459-.174 2.459-4.007 0-3.833-4.567.175-9.134.523-13.525 1.394-3.689.697-7.904 1.22-10.89 3.658-.176.175 0 .349.175.349z" fill="#525260"/><path d="M202.199 31.161c5.972-3.136 9.133-8.884 9.309-15.33.176-2.613-4.04-2.613-4.04 0-.175 5.4-2.283 10.452-5.972 14.633-.175.349.176 1.046.703.697z" fill="#525260"/></svg>