<svg width="395" height="482" fill="none" xmlns="http://www.w3.org/2000/svg"><path d="M300.926 480.846c30.818 2.907 61.249-13.22 78.628-38.303 18-25.986 18.57-59.055 2.754-86.258-15.279-26.247-44.314-45.535-75.417-43.663-29.094 1.753-60.616 23.023-57.07 55.373 3 27.317 29.926 51.248 57.731 48.532 27.805-2.716 48.97-28.235 52.487-54.937 4.427-33.693-21.041-61.11-46.595-79.003-30.933-21.742-70.469-36.004-90.713-69.927-15.961-26.746-17.127-60.919-5.634-89.57a92.89 92.89 0 0126.67-37.088c13.012-10.745 31.587-17.595 48.538-13.972 18.857 4.026 27.576 22.208 23.334 40.23-4.681 19.809-21.774 33.013-37.581 44.173-30.191 21.303-66.31 40.596-104.462 38.039-33.777-2.304-68.775-22.859-75.975-57.946-8.16-39.777 18.023-75.889 47.446-99.404 15.965-12.754 33.53-23.441 50.89-34.173 17.647-10.912 35.385-21.713 52.519-33.458 32.443-22.288 62.852-48.392 83.199-82.527 19.09-32.019 28.425-69.992 18.891-106.717-8.83-34.209-31.299-63.484-57.886-86.102-33.198-28.302-72.84-47.833-110.993-68.423L59.312-440.332.632-472" stroke="#525260"/></svg>