<svg width="423" height="1120" fill="none" xmlns="http://www.w3.org/2000/svg"><path d="M55.337 12.275c30.135-16.802 68.423-14.011 97.415 3.776 30.031 18.43 45.46 51.912 41.537 86.766-3.804 33.639-24.766 66.352-57.339 78.407-30.469 11.273-72.179 3.726-83.085-30.87-9.205-29.217 7.523-65.72 37.11-75.434 29.586-9.712 62.637 6.82 78.213 32.484 19.643 32.386 5.97 71.792-12.068 101.521-21.797 36.069-55.729 68.37-61.152 112.068-4.276 34.453 9.877 69.841 34.466 93.912a103.537 103.537 0 0043.861 25.865c18.1 5.12 40.125 3.769 55.793-7.537 17.432-12.574 18.163-35.04 5.744-51.521-13.67-18.109-37.036-23.905-58.173-28.194-40.367-8.179-85.878-11.646-123.655 8.092-33.425 17.515-59.903 54.2-51.496 93.229 9.535 44.245 52.46 69.332 93.036 80.113 22.014 5.844 44.733 8.861 67.262 12.016 22.904 3.21 45.85 6.266 68.604 10.555 43.105 8.173 85.85 21.153 121.933 46.843 33.852 24.096 60.425 58.646 67.187 100.394 6.35 38.865-3.43 78.821-20.399 113.834-21.164 43.779-52.838 81.503-82.519 119.64l-95.194 122.336-45.65 58.65" stroke="url(#paint0_linear)" stroke-dasharray="8 8"/><defs><linearGradient id="paint0_linear" x1="197.5" y1="1232.5" x2="-465.631" y2="877.31" gradientUnits="userSpaceOnUse"><stop stop-color="#484B57" stop-opacity=".92"/><stop offset=".092" stop-color="#484B57" stop-opacity="0"/><stop offset=".357" stop-color="#484B57" stop-opacity=".84"/><stop offset=".681" stop-color="#484B57"/><stop offset="1" stop-color="#232326" stop-opacity="0"/></linearGradient></defs></svg>