<svg width="33" height="32" fill="none" xmlns="http://www.w3.org/2000/svg"><g clip-path="url(#clip0)" fill="#999FAE"><path d="M16.505 7.784a8.21 8.21 0 00-8.21 8.21 8.21 8.21 0 008.21 8.211 8.21 8.21 0 008.21-8.21 8.21 8.21 0 00-8.21-8.211zm0 13.54a5.328 5.328 0 01-5.33-5.33 5.328 5.328 0 015.33-5.329 5.328 5.328 0 015.33 5.33 5.327 5.327 0 01-5.33 5.329z"/><path d="M23.097.103c-2.944-.138-10.236-.131-13.183 0C7.325.224 5.041.849 3.2 2.69.122 5.768.516 9.915.516 15.996c0 6.224-.347 10.275 2.684 13.305 3.09 3.088 7.296 2.684 13.305 2.684 6.166 0 8.294.004 10.474-.84 2.963-1.15 5.2-3.8 5.42-8.558.138-2.946.13-10.236 0-13.183-.264-5.617-3.28-9.024-9.302-9.301zm4.66 27.162c-2.017 2.018-4.816 1.838-11.29 1.838-6.667 0-9.34.098-11.291-1.858-2.247-2.236-1.84-5.826-1.84-11.27 0-7.367-.756-12.672 6.637-13.05 1.699-.06 2.199-.08 6.475-.08l.06.039c7.105 0 12.68-.744 13.015 6.648.076 1.687.093 2.193.093 6.463-.002 6.589.124 9.278-1.859 11.27z"/><path d="M25.041 9.379a1.919 1.919 0 100-3.838 1.919 1.919 0 000 3.838z"/></g><defs><clipPath id="clip0"><path fill="#fff" transform="translate(.5)" d="M0 0h32v32H0z"/></clipPath></defs></svg>