<svg width="42" height="42" fill="none" xmlns="http://www.w3.org/2000/svg"><g clip-path="url(#clip0)" fill="#525260"><path d="M21.006 10.217c-5.955 0-10.776 4.826-10.776 10.776 0 5.956 4.826 10.777 10.776 10.777 5.956 0 10.777-4.827 10.777-10.777 0-5.955-4.827-10.776-10.777-10.776zm0 17.771a6.992 6.992 0 01-6.994-6.995A6.994 6.994 0 0121.006 14a6.994 6.994 0 016.995 6.994 6.991 6.991 0 01-6.995 6.995z"/><path d="M29.66.134c-3.865-.18-13.436-.172-17.303 0-3.399.16-6.396.98-8.813 3.397C-.496 7.57.02 13.012.02 20.994c0 8.169-.455 13.485 3.523 17.463 4.055 4.053 9.576 3.523 17.463 3.523 8.092 0 10.885.005 13.746-1.103 3.89-1.51 6.827-4.987 7.114-11.233.182-3.866.172-13.435 0-17.302C41.521 4.969 37.564.498 29.66.134zm6.115 35.65c-2.647 2.649-6.32 2.412-14.819 2.412-8.75 0-12.258.13-14.819-2.437-2.948-2.935-2.415-7.648-2.415-14.793 0-9.669-.992-16.632 8.712-17.13 2.23-.078 2.886-.104 8.498-.104l.079.052c9.325 0 16.642-.976 17.081 8.726.1 2.214.123 2.879.123 8.482-.002 8.649.163 12.178-2.44 14.793z"/><path d="M32.21 12.31a2.518 2.518 0 100-5.036 2.518 2.518 0 000 5.036z"/></g><defs><clipPath id="clip0"><path fill="#fff" d="M0 0h42v42H0z"/></clipPath></defs></svg>