<svg width="42" height="42" fill="none" xmlns="http://www.w3.org/2000/svg"><g clip-path="url(#clip0)"><path d="M39.324 0H2.682A2.68 2.68 0 000 2.68v36.64A2.68 2.68 0 002.682 42h36.639A2.68 2.68 0 0042 39.32V2.68A2.674 2.674 0 0039.324 0zM34.84 25.592c.767.783 2.433 2.096 2.13 3.433-.278 1.227-2.11.779-3.888.85-2.03.086-3.234.13-4.455-.85-.575-.466-.912-1.017-1.464-1.634-.5-.557-1.132-1.556-1.991-1.517-1.545.077-1.062 2.229-1.61 3.696-8.583 1.351-12.03-3.95-15.07-9.096-1.474-2.493-3.602-7.845-3.602-7.845l6.07-.021s1.947 3.542 2.463 4.455c.439.776.922 1.393 1.42 2.086.418.575 1.079 1.701 1.802 1.61 1.176-.152 1.39-4.716.66-6.245-.29-.62-.986-.836-1.707-1.046.243-1.536 6.808-1.856 7.87-.664 1.54 1.73-1.068 6.55 1.043 7.955 2.963-1.554 5.495-8.056 5.495-8.056l7.107.044S36 16.262 34.837 17.821c-.68.913-2.932 2.946-2.843 4.455.071 1.194 1.903 2.356 2.846 3.316z" fill="#525260"/></g><defs><clipPath id="clip0"><path fill="#fff" d="M0 0h42v42H0z"/></clipPath></defs></svg>