<svg width="870" height="346" fill="none" xmlns="http://www.w3.org/2000/svg"><path d="M2.427 54.86c-7.49 35.487 11.19 74.423 45.445 87.986a77.196 77.196 0 0052.173 1.625 69.36 69.36 0 0039.273-33.725c8.028-15.254 10.881-33.493 6.477-50.286-4.047-15.462-15.204-29.804-30.145-36.007-15.512-6.398-32.23-1.096-42.37 11.966-11.12 14.329-13.907 33.877-10.97 51.359 3.14 18.373 13.157 35.73 30.508 43.771 17.351 8.042 35.851 3.13 48.842-10.379 15.33-15.933 20.293-37.885 29.295-57.41a104.367 104.367 0 0135.889-42.328C236.794.808 277.2-5.713 311.343 7.905c18.685 7.453 36.741 21.443 43.302 41.109 5.972 17.9-.369 38.01-13.914 50.759-13.681 12.874-33.019 15.785-50.165 8.354-16.992-7.372-29.558-23.689-29.757-42.53-.202-18.06 9.794-35.474 24.274-45.91 15.906-11.41 36.787-13.23 55.296-8.057 41.855 11.82 63.453 54.13 66.765 94.864 3.471 42.66-9.753 84.318-10.048 126.813-.264 36.664 10.695 80.147 43.943 100.676 32.904 20.359 74.162 8.771 103.608-12.283 37.511-26.815 62.918-66.964 99.034-95.426 32.419-25.554 76.881-42.593 117.247-25.531a66.15 66.15 0 0138.199 42.265c5.285 17.746 3.368 38.3-9.157 52.64-12.948 14.85-34.46 20.143-53.387 16.376-22.54-4.496-41.301-21.508-51.755-41.488-16.817-32.182-12.783-73.417 8.039-102.87 24.646-34.723 69.344-45.08 109.716-43.738 22.406.752 44.545 4.549 66.6 8.397" stroke="url(#paint0_linear)"/><defs><linearGradient id="paint0_linear" x1="196.545" y1="331.84" x2="450.764" y2="582.518" gradientUnits="userSpaceOnUse"><stop stop-color="#fff" stop-opacity=".28"/><stop offset="1" stop-color="#FAFAFA" stop-opacity="0"/></linearGradient></defs></svg>