<svg width="717" height="614" fill="none" xmlns="http://www.w3.org/2000/svg"><path d="M1.018 579.093c20.712 29.773 61.87 42.851 95.22 27.198a77.195 77.195 0 0036.938-36.882 69.362 69.362 0 002.352-51.713c-5.608-16.3-16.936-30.877-32.184-39.177-14.034-7.65-32.125-9.352-46.88-2.722-15.29 6.912-22.885 22.721-20.321 39.057 2.813 17.919 15.14 33.344 29.885 43.185 15.532 10.304 35.038 14.903 52.785 7.777 17.747-7.125 26.846-23.964 25.911-42.682-1.098-22.084-13.684-40.742-21.735-60.678a104.373 104.373 0 01-6.232-55.143c5.504-35.945 28.445-69.841 61.76-85.374 18.232-8.5 40.795-12.063 59.613-3.365 17.129 7.918 27.428 26.316 27.431 44.918 0 18.786-11.132 34.864-28.293 42.258-17.013 7.324-37.507 5.293-51.366-7.473-13.291-12.229-19.122-31.443-16.799-49.14 2.589-19.403 15.573-35.858 32.025-45.792 37.29-22.382 82.904-9.117 114.84 16.386 33.447 26.706 54.723 64.884 85.469 94.221 26.521 25.317 65.698 47.134 103.434 36.988 37.375-10.011 57.209-48 62.055-83.873 6.176-45.694-5.651-91.71-1.63-137.518 3.606-41.121 21.666-85.178 61.754-102.883a66.149 66.149 0 0156.958 1.144c16.546 8.312 30.201 23.793 32.061 42.742 1.942 19.606-8.945 38.9-24.66 50.102-18.72 13.334-43.966 15.34-65.681 9.262-34.962-9.806-62.228-41.003-69.409-76.351-8.398-41.743 14.69-81.393 43.333-109.876 15.903-15.802 33.84-29.324 51.756-42.749" stroke="url(#paint0_linear)"/><defs><linearGradient id="paint0_linear" x1="662" y1="225" x2="519.848" y2="15.456" gradientUnits="userSpaceOnUse"><stop stop-color="#fff" stop-opacity=".28"/><stop offset="1" stop-color="#FAFAFA" stop-opacity="0"/></linearGradient></defs></svg>