<svg width="731" height="900" fill="none" xmlns="http://www.w3.org/2000/svg"><path d="M64.72 796.804c-26.78-15.525-42.193-46.324-41.78-76.837.432-31.608 19.167-58.864 47.838-71.829 27.68-12.5 62.518-11.346 86.754 8.236 22.67 18.319 35.987 53.939 14.317 78.218-18.302 20.501-54.119 24.351-75.18 5.997-21.062-18.355-23.48-51.421-10.84-75.203 15.958-30.002 52.612-37.539 83.807-37.271 37.808.258 78.278 11.6 114.456-4.266 28.524-12.51 49.314-39.656 56.591-69.656a92.895 92.895 0 00-.18-45.682c-4.357-16.303-15.503-32.665-31.408-39.557-17.691-7.67-35.346 2.072-42.356 19.208-7.69 18.846-1.439 39.52 4.951 57.784 12.213 34.874 30.42 71.552 62.968 91.622 28.838 17.735 69.268 21.318 95.501-3.069 29.738-27.649 29.387-72.252 19.083-108.481-5.593-19.653-13.69-38.553-21.593-57.369-8.033-19.132-16.204-38.224-23.336-57.735-13.474-36.982-23.077-75.891-19.825-115.497 3.047-37.153 17.494-73.49 46.578-97.856 27.051-22.726 62.342-33.516 97.121-36.496 43.462-3.768 87.078 3.345 130.096 8.732l137.987 17.27 66.164 8.286" stroke="url(#paint0_linear)"/><defs><linearGradient id="paint0_linear" x1="473.315" y1="856.149" x2="-18.643" y2="653.205" gradientUnits="userSpaceOnUse"><stop stop-color="#fff"/><stop offset="1" stop-color="#FAFAFA" stop-opacity="0"/></linearGradient></defs></svg>