<svg width="643" height="815" fill="none" xmlns="http://www.w3.org/2000/svg"><path opacity=".5" d="M67-4.977c-30.27 6.53-54.43 31.12-63.44 60.32-9.33 30.25.1 62 23.39 83.2 22.49 20.45 56 30.1 85.099 18.92 27.22-10.46 50.87-40.29 37.73-70.11-11.1-25.18-44-39.9-69.7-28.91-25.7 10.99-38.19 41.75-33.49 68.31 5.94 33.51 38.5 52 68.27 61.37 36.06 11.42 78.07 13.1 107.61 39.38 23.29 20.72 34.71 53 32.39 83.83a93.105 93.105 0 01-14.25 43.47c-9.17 14.19-24.82 26.34-42.08 28-19.2 1.85-33-12.88-34.39-31.37-1.51-20.33 10.81-38.1 22.52-53.53 22.37-29.46 51-58.79 88.16-67.87 32.91-8 72.49 1.06 89.94 32.39 19.78 35.52 5.7 77.91-15.27 109.25-11.38 17-24.91 32.51-38.23 48-13.54 15.75-27.2 31.42-40 47.81-24.22 31.08-45.35 65.19-54.46 103.93-8.55 36.34-6 75.42 14.17 107.61 18.74 30 49 51.17 81.18 64.74 40.2 17 83.9 23.68 126.5 31.82l136.64 26.12 65.52 12.52c1.41.27 2-1.89.6-2.17l-135-25.81c-43.92-8.39-88.15-15.82-131.77-25.66-38.83-8.77-77.78-21.54-109.21-46.81-13.92-11.19-26.16-24.62-35.05-40.18a124.597 124.597 0 01-15.83-55.47c-4.35-84.71 58.39-149.62 109.12-209.51 24.16-28.54 49-60.32 52.32-99 1.45-16.72-1.2-34.2-9.59-48.91a68.831 68.831 0 00-33.94-29.28c-30.78-12.65-65.45-5.78-92.83 11.65-15.3 9.77-28.63 22.35-40.53 35.95-12.15 13.9-24.86 29.17-32.24 46.22-6.28 14.52-7.71 32.41 1.55 46.07 8.28 12.2 22.94 16.06 36.81 12.57 30.21-7.6 47.66-38.19 51.35-67.25 3.65-28.82-4.78-59.37-23.62-81.61-24-28.29-61.46-35.08-95.71-43.22-32.44-7.7-72.27-20.69-85.5-54.88-10.57-27.31.77-63.5 28.27-76 27.78-12.65 65.64 7 70.72 37.29 6.1 36.3-33.56 62.1-65.61 61.73-32.05-.37-63.39-21-76.6-50.22-13.73-30.42-4.09-66.42 18.64-89.76a80.11 80.11 0 0140.41-22.74c1.43-.31.81-2.47-.57-2.2z" fill="#FFDC60"/></svg>