<svg width="353" height="498" fill="none" xmlns="http://www.w3.org/2000/svg"><path d="M35.684 498.151C14.946 487.803 1.987 465.51.868 442.691c-1.157-23.64 11.567-44.884 32.384-55.914 20.1-10.636 46.186-11.404 65.213 2.094 17.798 12.628 29.416 38.621 14.36 57.779-12.717 16.175-39.302 20.729-55.899 7.999s-19.95-37.325-11.619-55.688c10.52-23.166 37.557-30.513 60.88-31.773 28.264-1.577 59.037 5.004 85.328-8.545 20.729-10.683 34.994-31.941 39.028-54.7a69.559 69.559 0 00-2.274-34.127c-4.018-11.979-13.113-23.683-25.32-28.089-13.579-4.904-26.316 3.203-30.752 16.336-4.864 14.443.774 29.599 6.405 42.947 10.758 25.488 26.08 52.044 51.34 65.518 22.38 11.902 52.759 12.687 71.22-6.763 20.928-22.053 18.577-55.366 9.183-81.956-5.1-14.424-12.035-28.168-18.821-41.859-6.898-13.92-13.898-27.804-20.14-42.05-11.8-27.004-20.797-55.63-20.22-85.377.538-27.905 9.632-55.734 30.225-75.303 19.15-18.248 45.016-27.963 70.866-31.818" stroke="#525260"/></svg>