<svg width="440" height="101" fill="none" xmlns="http://www.w3.org/2000/svg"><path d="M5.856 2.453c0 6.654-.336 13.106-.336 19.759 0 .806 2.016.806 2.016 0 0-6.653-.336-13.105-.336-19.759 0-.403-1.344-.403-1.344 0z" fill="#BADEFF"/><path d="M5.855 2.453c-1.008 8.67-1.68 17.34-2.688 25.808 0 1.008 2.688 1.008 2.688 0 .336-8.67 1.008-17.34 1.68-25.808 0-.604-1.344-.604-1.68 0zm4.032 4.839c-2.688 5.646-3.36 11.493-3.024 17.34 0 1.41 3.696 1.41 3.696 0-.672-5.848 0-11.493 1.008-17.34 0-.403-1.344-.403-1.68 0z" fill="#BADEFF"/><path d="M10.224 5.074c-.336 7.46-1.008 14.719-1.345 22.178 0 1.412 3.36 1.412 3.36 0-.335-7.46-1.007-14.718-1.343-22.178 0-.403-.672-.403-.672 0zM2.159 41.97c-3.36 5.848-2.353 14.114 0 20.163.336 1.21 4.032 1.008 3.696-.202-.672-3.63-1.68-7.057-2.016-10.686-.336-3.024 0-6.25-.672-9.274-.336-.404-1.008-.202-1.008 0zm5.713 1.21c0 7.46 0 14.718-.672 22.179 0 1.008 2.688 1.008 2.688 0-.336-7.46-.336-14.719-.672-22.179.336-.605-1.344-.605-1.344 0z" fill="#BADEFF"/><path d="M9.552 44.39c0 6.654-.336 13.105-.672 19.759 0 1.411 3.36 1.411 3.36 0-.336-6.654-.336-13.105-.672-19.759 0-.806-2.016-.806-2.016 0zM1.487 78.867c-1.68 5.847 0 12.702.672 18.549.336 1.613 4.033 1.613 4.033 0-.672-6.049-.672-12.904-3.36-18.549 0-.403-1.009-.403-1.345 0zm6.385 1.411c-.672 6.654.336 13.105 1.344 19.759.336 1.411 4.032 1.21 3.36-.202-3.024-6.25-3.36-12.903-3.024-19.355 0-1.008-1.68-1.008-1.68-.202z" fill="#BADEFF"/><path d="M11.903 77.657c-.336 7.057-.336 13.912-1.008 20.969 0 1.21 3.36 1.21 3.36 0-.672-7.057-.672-13.912-1.008-20.969 0-.403-1.344-.403-1.344 0zm3.024-72.784c-2.016-.403-4.032-.605-6.048-1.008-.673.605-1.345 1.21-1.68 2.016 23.185.806 46.37.403 69.557.605 3.696 0 3.696-3.63 0-3.63-23.186 0-46.372-.403-69.558.404-2.016 0-3.024 1.613-1.008 2.42 3.36 1.41 6.385 1.209 9.409-.404 0 0-.336-.403-.672-.403zM4.51 11.123c25.875 1.008 52.085 1.411 77.959 1.815 3.696 0 3.696-3.428 0-3.428-25.874 0-52.084-.202-77.958.403-1.344 0-1.344 1.21 0 1.21zm110.888-6.452c20.834 1.21 42.675-.201 63.845-.806 3.024 0 3.024-2.823 0-2.823-21.17.605-43.347.605-63.845 3.024-1.008-.201-.672.404 0 .605z" fill="#BADEFF"/><path d="M123.127 9.51c18.818-.403 36.627-1.613 55.781-.202 3.36.202 3.36-3.024 0-3.225-18.146-1.21-38.643-1.613-56.117 2.217-.672.202-.672 1.21.336 1.21zm78.294-5.847c17.137.605 34.274-.202 51.412.403 3.024 0 3.024-2.62 0-2.822-16.802-.202-34.947-.807-51.748 1.21-1.008.201-.672 1.21.336 1.21zm10.418 3.427c17.473 1.21 35.283.605 52.756 2.017 3.696.201 4.368-2.823.672-3.024-17.137-1.009-36.627-2.218-53.764.201-.672.202-.336.807.336.807zm81.99-5.241c13.441 1.008 26.882.604 40.659 2.217 3.024.404 4.368-2.62 1.344-2.822-13.441-1.21-28.562-2.218-42.003.403v.202zm6.048 5.241c5.041 1.009 10.753.404 16.13.404 6.384 0 12.433.201 18.817.605 3.36.201 3.36-3.025 0-3.025-10.417-.201-25.874-1.41-35.283 1.815 0-.202.336 0 .336.202zm66.197-4.233c22.513.806 45.027 1.008 67.877 2.217 3.024.202 3.024-2.822 0-2.822-22.178-1.412-45.7-1.815-67.877-.202-1.008.202-1.008.807 0 .807z" fill="#BADEFF"/><path d="M376.155 5.68c15.793 2.419 35.283.806 51.412.806 3.696 0 3.696-3.63 0-3.428-16.129.403-35.955-1.008-51.412 1.815-.672.201-.672.806 0 .806zM4.51 98.827c19.826.202 39.652-.806 59.477-1.21 2.353 0 2.353-2.419 0-2.217-19.825.605-39.987 1.008-59.476 2.218-1.344 0-1.344 1.21 0 1.21z" fill="#BADEFF"/><path d="M9.215 95.803c-1.008-.403 9.073-.605 10.753-.605 6.048 0 11.76 0 17.81.202 11.088 0 21.84.201 32.93.201 3.696 0 3.696-3.629 0-3.427-21.842 0-43.684 0-65.525.605-1.68 0-2.688 1.21-1.344 2.016 2.352 1.613 1.68 1.21 5.04 1.814.336 0 1.008-.604.336-.806zM86.5 92.174c21.17-.605 42.34-.605 63.845 0 2.016 0 2.016-1.815 0-1.815-21.169-.403-42.675-.201-63.844 1.008-.673.202-.673 1.008 0 .807zm10.417 4.234c16.465-.404 32.93-.807 49.396 0 2.688.201 2.688-2.42 0-2.42-16.466-.403-33.267-.201-49.396 1.815-1.008-.202-.672.605 0 .605zm79.974-6.855c15.793.806 31.587.605 47.38.605 3.024 0 3.024-2.823 0-2.621-15.793.201-31.587-.202-47.38.604-1.344 0-1.344 1.21 0 1.412zm-2.016 4.637c18.482-.806 36.963-1.21 55.445-.605 2.016 0 2.016-1.814 0-1.814-18.482-.404-37.299-.202-55.781 1.41-1.008 0-.672 1.009.336 1.009zm92.408-8.065c18.818 1.008 38.643-.403 57.461-.806 3.024 0 3.024-3.025 0-2.823-19.154.806-38.979.605-57.797 2.823-.672 0-.336.806.336.806z" fill="#BADEFF"/><path d="M269.299 90.763c19.49 0 38.307-1.412 57.796-.202 3.361.201 3.361-2.823 0-3.024-18.481-1.009-39.987-1.412-58.132 2.217-1.008.202-.672 1.008.336 1.008zm98.455-5.243c17.473 2.42 37.97 1.008 55.78-.201 3.024-.202 3.024-3.226 0-2.823-18.482 1.411-37.299.605-55.444 2.016-1.008 0-1.344 1.008-.336 1.008zm2.353 5.04c22.513-.806 45.027-1.007 67.877-.402 2.688 0 2.688-2.42 0-2.42-22.514-.403-45.364-.201-67.877 1.21-1.68 0-1.68 1.613 0 1.613zm59.812-78.429c-1.68-1.21-2.688-3.024-1.68-4.436.672-.806-1.344-1.008-1.68-.201-.336 2.016 0 3.629 2.352 5.242.672.201 1.68-.202 1.008-.605z" fill="#BADEFF"/><path d="M422.191 5.074s-1.344 11.896-1.344 12.5c0 4.436-.336 8.872-.336 13.308 0 2.217 6.048 2.217 6.048 0V16.567c0-2.42 1.68-9.476-1.008-11.694-1.68-1.412-5.04-1.613-5.04.403 0 .202.336.403.672.605.336 0 .672 0 .672.202.672 0 1.344-.807.336-1.009z" fill="#BADEFF"/><path d="M427.566 6.284c-.336 7.863 0 15.525 0 23.388 0 1.814 5.04 1.814 4.704 0-1.008-7.863-1.344-15.525-2.688-23.388 0-.806-2.016-.806-2.016 0zm-7.391 52.824c-1.68 4.033-1.008 8.065-1.008 12.097 0 4.638-.336 9.275-.672 13.912-.336 2.218 5.712 2.218 5.712 0 .336-8.065 2.352-18.347-3.024-26.009 0-.201-.672-.403-1.008 0zm5.04-1.209c.336 9.072 2.352 18.145 2.688 27.016 0 1.815 4.704 1.613 4.368-.403-2.688-8.871-3.36-17.944-6.048-26.815 0-.202-1.008 0-1.008.202zM420.51 45.6c-.336.403-.336.806-.672 1.21-.672 1.612 4.033 1.612 3.025 0-.336-.404-.336-.807-.673-1.21 0-.605-1.344-.605-1.68 0zm6.385-1.21c-1.009 2.823-.336 5.444 1.344 8.065.672 1.008 3.696.202 2.688-1.008-2.016-2.016-3.024-4.436-2.352-6.855 0-.605-1.344-1.008-1.68-.202z" fill="#BADEFF"/></svg>