<svg width="42" height="42" viewBox="0 0 42 42" fill="none" xmlns="http://www.w3.org/2000/svg">
<g clip-path="url(#clip0)">
<path d="M21.0065 10.2168C15.0513 10.2168 10.23 15.0433 10.23 20.9933C10.23 26.9485 15.0565 31.7698 21.0065 31.7698C26.9618 31.7698 31.783 26.9433 31.783 20.9933C31.783 15.038 26.9565 10.2168 21.0065 10.2168ZM21.0065 27.988C17.1408 27.988 14.0118 24.8573 14.0118 20.9933C14.0118 17.1293 17.1425 13.9985 21.0065 13.9985C24.8705 13.9985 28.0013 17.1293 28.0013 20.9933C28.003 24.8573 24.8723 27.988 21.0065 27.988Z" fill="#525260"/>
<path d="M29.6591 0.13388C25.7951 -0.0463702 16.2244 -0.0376202 12.3569 0.13388C8.95837 0.29313 5.96062 1.11388 3.54387 3.53063C-0.495127 7.56963 0.021123 13.0121 0.021123 20.9939C0.021123 29.1629 -0.433877 34.4794 3.54387 38.4571C7.59862 42.5101 13.1199 41.9799 21.0071 41.9799C29.0991 41.9799 31.8921 41.9851 34.7534 40.8774C38.6436 39.3671 41.5801 35.8899 41.8671 29.6441C42.0491 25.7784 42.0386 16.2094 41.8671 12.3419C41.5206 4.96913 37.5639 0.49788 29.6591 0.13388ZM35.7754 35.7849C33.1276 38.4326 29.4544 38.1964 20.9564 38.1964C12.2064 38.1964 8.69762 38.3259 6.13737 35.7586C3.18862 32.8239 3.72237 28.1111 3.72237 20.9659C3.72237 11.2971 2.73012 4.33388 12.4339 3.83688C14.6634 3.75813 15.3196 3.73188 20.9319 3.73188L21.0106 3.78438C30.3364 3.78438 37.6531 2.80788 38.0924 12.5099C38.1921 14.7236 38.2149 15.3886 38.2149 20.9921C38.2131 29.6406 38.3776 33.1704 35.7754 35.7849Z" fill="#525260"/>
<path d="M32.2103 12.3099C33.6011 12.3099 34.7285 11.1825 34.7285 9.79168C34.7285 8.40089 33.6011 7.27344 32.2103 7.27344C30.8195 7.27344 29.692 8.40089 29.692 9.79168C29.692 11.1825 30.8195 12.3099 32.2103 12.3099Z" fill="#525260"/>
</g>
<defs>
<clipPath id="clip0">
<rect width="42" height="42" fill="white"/>
</clipPath>
</defs>
</svg>
