<svg width="33" height="32" viewBox="0 0 33 32" fill="none" xmlns="http://www.w3.org/2000/svg">
<g clip-path="url(#clip0)">
<path d="M16.5051 7.78384C11.9678 7.78384 8.29443 11.4612 8.29443 15.9945C8.29443 20.5318 11.9718 24.2052 16.5051 24.2052C21.0424 24.2052 24.7158 20.5278 24.7158 15.9945C24.7158 11.4572 21.0384 7.78384 16.5051 7.78384ZM16.5051 21.3238C13.5598 21.3238 11.1758 18.9385 11.1758 15.9945C11.1758 13.0505 13.5611 10.6652 16.5051 10.6652C19.4491 10.6652 21.8344 13.0505 21.8344 15.9945C21.8358 18.9385 19.4504 21.3238 16.5051 21.3238Z" fill="#999FAE"/>
<path d="M23.0971 0.102713C20.1531 -0.0346205 12.8611 -0.0279539 9.91448 0.102713C7.32515 0.224046 5.04115 0.849379 3.19981 2.69071C0.122481 5.76805 0.515815 9.91471 0.515815 15.996C0.515815 22.22 0.169148 26.2707 3.19981 29.3014C6.28915 32.3894 10.4958 31.9854 16.5051 31.9854C22.6705 31.9854 24.7985 31.9894 26.9785 31.1454C29.9425 29.9947 32.1798 27.3454 32.3985 22.5867C32.5371 19.6414 32.5291 12.3507 32.3985 9.40405C32.1345 3.78671 29.1198 0.380046 23.0971 0.102713ZM27.7571 27.2654C25.7398 29.2827 22.9411 29.1027 16.4665 29.1027C9.79981 29.1027 7.12648 29.2014 5.17581 27.2454C2.92915 25.0094 3.33581 21.4187 3.33581 15.9747C3.33581 8.60804 2.57981 3.30271 9.97315 2.92405C11.6718 2.86405 12.1718 2.84405 16.4478 2.84405L16.5078 2.88405C23.6131 2.88405 29.1878 2.14005 29.5225 9.53205C29.5985 11.2187 29.6158 11.7254 29.6158 15.9947C29.6145 22.584 29.7398 25.2734 27.7571 27.2654Z" fill="#999FAE"/>
<path d="M25.0412 9.37877C26.1009 9.37877 26.9599 8.51975 26.9599 7.46011C26.9599 6.40046 26.1009 5.54144 25.0412 5.54144C23.9816 5.54144 23.1226 6.40046 23.1226 7.46011C23.1226 8.51975 23.9816 9.37877 25.0412 9.37877Z" fill="#999FAE"/>
</g>
<defs>
<clipPath id="clip0">
<rect width="32" height="32" fill="white" transform="translate(0.5)"/>
</clipPath>
</defs>
</svg>
