<svg width="16" height="16" viewBox="0 0 16 16" fill="none" xmlns="http://www.w3.org/2000/svg">
<path d="M15 3.99975H0.999994C0.86658 3.99173 0.732983 4.0121 0.608023 4.05952C0.483063 4.10694 0.369583 4.18032 0.275075 4.27483C0.180567 4.36934 0.107182 4.48282 0.0597638 4.60778C0.0123458 4.73274 -0.00802585 4.86634 -6.20866e-06 4.99975V14.9997C-0.00802585 15.1332 0.0123458 15.2668 0.0597638 15.3917C0.107182 15.5167 0.180567 15.6302 0.275075 15.7247C0.369583 15.8192 0.483063 15.8926 0.608023 15.94C0.732983 15.9874 0.86658 16.0078 0.999994 15.9997H15C15.1334 16.0078 15.267 15.9874 15.392 15.94C15.5169 15.8926 15.6304 15.8192 15.7249 15.7247C15.8194 15.6302 15.8928 15.5167 15.9402 15.3917C15.9876 15.2668 16.008 15.1332 16 14.9997V4.99975C16.008 4.86634 15.9876 4.73274 15.9402 4.60778C15.8928 4.48282 15.8194 4.36934 15.7249 4.27483C15.6304 4.18032 15.5169 4.10694 15.392 4.05952C15.267 4.0121 15.1334 3.99173 15 3.99975ZM5.99999 12.9997V6.99975L11 9.99975L5.99999 12.9997Z" fill="white"/>
<path d="M3 0H13C13.2652 0 13.5196 0.105357 13.7071 0.292893C13.8946 0.48043 14 0.734784 14 1V2H2V1C2 0.734784 2.10536 0.48043 2.29289 0.292893C2.48043 0.105357 2.73478 0 3 0V0Z" fill="#FA406D"/>
</svg>
