<svg width="16" height="18" viewBox="0 0 16 18" fill="none" xmlns="http://www.w3.org/2000/svg">
<g clip-path="url(#clip0)">
<path d="M15.0017 5.99975H1.0017C0.868289 5.99173 0.734692 6.0121 0.609732 6.05952C0.484772 6.10694 0.371292 6.18032 0.276784 6.27483C0.182276 6.36934 0.108891 6.48282 0.0614728 6.60778C0.0140548 6.73274 -0.00631686 6.86634 0.00170278 6.99975V16.9997C-0.00631686 17.1332 0.0140548 17.2668 0.0614728 17.3917C0.108891 17.5167 0.182276 17.6302 0.276784 17.7247C0.371292 17.8192 0.484772 17.8926 0.609732 17.94C0.734692 17.9874 0.868289 18.0078 1.0017 17.9997H15.0017C15.1351 18.0078 15.2687 17.9874 15.3937 17.94C15.5186 17.8926 15.6321 17.8192 15.7266 17.7247C15.8211 17.6302 15.8945 17.5167 15.9419 17.3917C15.9894 17.2668 16.0097 17.1332 16.0017 16.9997V6.99975C16.0097 6.86634 15.9894 6.73274 15.9419 6.60778C15.8945 6.48282 15.8211 6.36934 15.7266 6.27483C15.6321 6.18032 15.5186 6.10694 15.3937 6.05952C15.2687 6.0121 15.1351 5.99173 15.0017 5.99975ZM6.0017 14.9997V8.99975L11.0017 11.9997L6.0017 14.9997Z" fill="#292930"/>
<path d="M3 2H13C13.2652 2 13.5196 2.10536 13.7071 2.29289C13.8946 2.48043 14 2.73478 14 3V4H2V3C2 2.73478 2.10536 2.48043 2.29289 2.29289C2.48043 2.10536 2.73478 2 3 2V2Z" fill="#FA406D"/>
</g>
<defs>
<clipPath id="clip0">
<rect width="16" height="16" fill="white" transform="translate(0 2)"/>
</clipPath>
</defs>
</svg>
