<svg width="33" height="32" viewBox="0 0 33 32" fill="none" xmlns="http://www.w3.org/2000/svg">
<g clip-path="url(#clip0)">
<path d="M30.4609 0H2.54361C1.41454 0 0.5 0.914544 0.5 2.04135V29.9587C0.5 31.0855 1.41454 32 2.54361 32H30.4587C31.5855 32 32.5 31.0855 32.5 29.9587V2.04135C32.5023 0.912286 31.5877 0 30.4609 0ZM27.0444 19.499C27.6292 20.0951 28.8983 21.0955 28.6679 22.1139C28.4557 23.0488 27.0602 22.7078 25.7053 22.762C24.1585 22.8275 23.2417 22.8613 22.3113 22.1139C21.8732 21.7594 21.6158 21.3394 21.1958 20.8697C20.8142 20.4451 20.3332 19.6841 19.6783 19.7135C18.5018 19.7722 18.8699 21.4116 18.4522 22.5294C11.9126 23.5591 9.2864 19.5193 6.96955 15.5992C5.84726 13.7001 4.22592 9.6219 4.22592 9.6219L8.85058 9.6061C8.85058 9.6061 10.3342 12.3046 10.7271 13.0001C11.0613 13.5917 11.4294 14.0614 11.8087 14.5898C12.1271 15.0279 12.6307 15.886 13.1817 15.816C14.0782 15.7008 14.2407 12.2233 13.6852 11.0581C13.4639 10.5861 12.9333 10.4213 12.3846 10.261C12.5697 9.09124 17.5715 8.84737 18.3799 9.75513C19.5541 11.0739 17.567 14.7456 19.1748 15.816C21.4329 14.6327 23.3613 9.67836 23.3613 9.67836L28.7763 9.71223C28.7763 9.71223 27.9295 12.3904 27.0421 13.5782C26.525 14.2737 24.8088 15.8227 24.8765 16.9721C24.9307 17.8822 26.3263 18.7673 27.0444 19.499Z" fill="#999FAE"/>
</g>
<defs>
<clipPath id="clip0">
<rect width="32" height="32" fill="white" transform="translate(0.5)"/>
</clipPath>
</defs>
</svg>
