<svg width="42" height="42" viewBox="0 0 42 42" fill="none" xmlns="http://www.w3.org/2000/svg">
<g clip-path="url(#clip0)">
<path d="M39.3237 0H2.68224C1.20034 0 0 1.20034 0 2.67927V39.3207C0 40.7997 1.20034 42 2.68224 42H39.3207C40.7997 42 42 40.7997 42 39.3207V2.67927C42.003 1.19737 40.8026 0 39.3237 0ZM34.8395 25.5924C35.6071 26.3749 37.2727 27.6878 36.9704 29.0245C36.6918 30.2515 34.8602 29.804 33.0819 29.8751C31.0517 29.961 29.8484 30.0055 28.6273 29.0245C28.0524 28.5592 27.7145 28.0079 27.1632 27.3914C26.6623 26.8342 26.031 25.8354 25.1715 25.874C23.6274 25.951 24.1105 28.1027 23.5622 29.5698C14.979 30.9213 11.5321 25.6191 8.49128 20.4739C7.01828 17.9814 4.89027 12.6287 4.89027 12.6287L10.9601 12.608C10.9601 12.608 12.9073 16.1497 13.423 17.0626C13.8617 17.8391 14.3448 18.4556 14.8427 19.1491C15.2606 19.7241 15.9215 20.8503 16.6447 20.7585C17.8213 20.6073 18.0347 16.043 17.3056 14.5137C17.0152 13.8943 16.3187 13.6779 15.5985 13.4675C15.8415 11.9323 22.4063 11.6122 23.4674 12.8036C25.0085 14.5345 22.4004 19.3536 24.5106 20.7585C27.4744 19.2054 30.0055 12.7028 30.0055 12.7028L37.1127 12.7473C37.1127 12.7473 36.0013 16.2624 34.8365 17.8213C34.1578 18.7342 31.9053 20.7673 31.9942 22.2759C32.0653 23.4703 33.897 24.6321 34.8395 25.5924Z" fill="#525260"/>
</g>
<defs>
<clipPath id="clip0">
<rect width="42" height="42" fill="white"/>
</clipPath>
</defs>
</svg>
